<?xml version="1.0" standalone="no"?>
<!DOCTYPE svg PUBLIC "-//W3C//DTD SVG 1.1//EN" "http://www.w3.org/Graphics/SVG/1.1/DTD/svg11.dtd" >
<svg xmlns="http://www.w3.org/2000/svg">
<metadata>Generated by IcoMoon</metadata>
<defs>
<font id="icomoon" horiz-adv-x="1024">
<font-face units-per-em="1024" ascent="960" descent="-64" />
<missing-glyph horiz-adv-x="1024" />
<glyph unicode="&#x20;" d="" horiz-adv-x="512" />
<glyph unicode="&#xe600;" d="M0 148q0 30.286 2 59.143t8 62.286 15.143 62 24.571 55.714 35.429 46.286 48.857 30.571 63.714 11.429q5.143 0 24-12.286t42.571-27.429 61.714-27.429 76.286-12.286 76.286 12.286 61.714 27.429 42.571 27.429 24 12.286q34.857 0 63.714-11.429t48.857-30.571 35.429-46.286 24.571-55.714 15.143-62 8-62.286 2-59.143q0-68.571-41.714-108.286t-110.857-39.714h-499.429q-69.143 0-110.857 39.714t-41.714 108.286zM182.857 658.286q0 90.857 64.286 155.143t155.143 64.286 155.143-64.286 64.286-155.143-64.286-155.143-155.143-64.286-155.143 64.286-64.286 155.143z" horiz-adv-x="805" />
<glyph unicode="&#xe601;" d="M69.143 420.571q0 22.857 16 38.857l77.714 77.714q16 16 38.857 16t38.857-16l168-168.571 374.857 375.429q16 16 38.857 16t38.857-16l77.714-77.714q16-16 16-38.857t-16-38.857l-491.429-491.429q-16-16-38.857-16t-38.857 16l-284.571 284.571q-16 16-16 38.857z" />
<glyph unicode="&#xe602;" d="M62.857 195.428q0 22.857 16 38.857l168 168-168 168q-16 16-16 38.857t16 38.857l77.714 77.714q16 16 38.857 16t38.857-16l168-168 168 168q16 16 38.857 16t38.857-16l77.714-77.714q16-16 16-38.857t-16-38.857l-168-168 168-168q16-16 16-38.857t-16-38.857l-77.714-77.714q-16-16-38.857-16t-38.857 16l-168 168-168-168q-16-16-38.857-16t-38.857 16l-77.714 77.714q-16 16-16 38.857z" horiz-adv-x="805" />
<glyph unicode="&#xe603;" d="M0 475.428q0 81.714 31.714 156.286t85.714 128.571 128.571 85.714 156.286 31.714 156.286-31.714 128.571-85.714 85.714-128.571 31.714-156.286q0-125.714-70.857-228l196-196q21.143-21.143 21.143-51.429t-21.429-51.714-51.714-21.429q-30.857 0-51.429 21.714l-196 195.429q-102.286-70.857-228-70.857-81.714 0-156.286 31.714t-128.571 85.714-85.714 128.571-31.714 156.286zM146.286 475.428q0-105.714 75.143-180.857t180.857-75.143 180.857 75.143 75.143 180.857-75.143 180.857-180.857 75.143-180.857-75.143-75.143-180.857zM219.429 457.143v36.571q0 7.429 5.429 12.857t12.857 5.429h128v128q0 7.429 5.429 12.857t12.857 5.429h36.571q7.429 0 12.857-5.429t5.429-12.857v-128h128q7.429 0 12.857-5.429t5.429-12.857v-36.571q0-7.429-5.429-12.857t-12.857-5.429h-128v-128q0-7.429-5.429-12.857t-12.857-5.429h-36.571q-7.429 0-12.857 5.429t-5.429 12.857v128h-128q-7.429 0-12.857 5.429t-5.429 12.857z" horiz-adv-x="951" />
<glyph unicode="&#xe604;" d="M0 475.428q0 81.714 31.714 156.286t85.714 128.571 128.571 85.714 156.286 31.714 156.286-31.714 128.571-85.714 85.714-128.571 31.714-156.286q0-125.714-70.857-228l196-196q21.143-21.143 21.143-51.429t-21.429-51.714-51.714-21.429q-30.857 0-51.429 21.714l-196 195.429q-102.286-70.857-228-70.857-81.714 0-156.286 31.714t-128.571 85.714-85.714 128.571-31.714 156.286zM146.286 475.428q0-105.714 75.143-180.857t180.857-75.143 180.857 75.143 75.143 180.857-75.143 180.857-180.857 75.143-180.857-75.143-75.143-180.857zM219.429 457.143v36.571q0 7.429 5.429 12.857t12.857 5.429h329.143q7.429 0 12.857-5.429t5.429-12.857v-36.571q0-7.429-5.429-12.857t-12.857-5.429h-329.143q-7.429 0-12.857 5.429t-5.429 12.857z" horiz-adv-x="951" />
<glyph unicode="&#xe605;" d="M0 438.857q0 104 46 196t129.429 154.286q24.571 18.286 54.571 14.286t47.714-28.571q18.286-24 14-54t-28.286-48.286q-56-42.286-86.571-103.429t-30.571-130.286q0-59.429 23.143-113.429t62.571-93.429 93.429-62.571 113.429-23.143 113.429 23.143 93.429 62.571 62.571 93.429 23.143 113.429q0 69.143-30.571 130.286t-86.571 103.429q-24 18.286-28.286 48.286t14 54q17.714 24.571 48 28.571t54.286-14.286q83.429-62.286 129.429-154.286t46-196q0-89.143-34.857-170.286t-93.714-140-140-93.714-170.286-34.857-170.286 34.857-140 93.714-93.714 140-34.857 170.286zM365.714 512v365.714q0 29.714 21.714 51.429t51.429 21.714 51.429-21.714 21.714-51.429v-365.714q0-29.714-21.714-51.429t-51.429-21.714-51.429 21.714-21.714 51.429z" />
<glyph unicode="&#xe606;" d="M0 376.571v126.857q0 6.857 4.571 13.143t10.857 7.429l106.286 16q8 26.286 22.286 52.571-22.857 32.571-61.143 78.857-5.714 6.857-5.714 13.714 0 5.714 5.143 13.143 14.857 20.571 56.286 61.429t54 40.857q7.429 0 14.857-5.714l78.857-61.143q25.143 13.143 52 21.714 9.143 77.714 16.571 106.286 4 16 20.571 16h126.857q8 0 14-4.857t6.571-12.286l16-105.143q28-9.143 51.429-21.143l81.143 61.143q5.143 5.143 13.714 5.143 7.429 0 14.286-5.714 73.714-68 94.286-97.143 4-4.571 4-12.571 0-6.857-4.571-13.143-8.571-12-29.143-38t-30.857-40.286q14.857-28.571 23.429-56l104.571-16q7.429-1.143 12-7.143t4.571-13.429v-126.857q0-6.857-4.571-13.143t-11.429-7.429l-105.714-16q-10.857-30.857-22.286-52 20-28.571 61.143-78.857 5.714-6.857 5.714-14.286t-5.143-13.143q-15.429-21.143-56.571-61.714t-53.714-40.571q-6.857 0-14.857 5.143l-78.857 61.714q-25.143-13.143-52-21.714-9.143-77.714-16.571-106.286-4-16-20.571-16h-126.857q-8 0-14 4.857t-6.571 12.286l-16 105.143q-28 9.143-51.429 21.143l-80.571-61.143q-5.714-5.143-14.286-5.143-8 0-14.286 6.286-72 65.143-94.286 96-4 5.714-4 13.143 0 6.857 4.571 13.143 8.571 12 29.143 38t30.857 40.286q-15.429 28.571-23.429 56.571l-104.571 15.429q-7.429 1.143-12 7.143t-4.571 13.429zM292.571 438.857q0-60.571 42.857-103.429t103.429-42.857 103.429 42.857 42.857 103.429-42.857 103.429-103.429 42.857-103.429-42.857-42.857-103.429z" />
<glyph unicode="&#xe607;" d="M1024 704c0 44.992-30.624 83.456-74.432 93.568l-416.416 96.096c-6.976 1.568-14.080 2.336-21.152 2.336s-14.176-0.768-21.6-2.432l-415.968-96c-43.84-10.112-74.432-48.576-74.432-93.568s30.624-83.456 74.4-93.568l85.6-19.744v-270.688c0-84.928 97.216-160 352-160s352 75.072 352 160v270.688l85.568 19.744c43.808 10.112 74.432 48.576 74.432 93.568zM800 320c0-35.36-96-96-288-96s-288 60.64-288 96v255.904l266.816-61.568c6.976-1.568 14.112-2.336 21.184-2.336s14.208 0.768 21.568 2.432l266.432 61.472v-255.904zM519.2 576.8c-2.4-0.512-4.8-0.8-7.2-0.8s-4.832 0.288-7.2 0.8l-416 96c-14.528 3.36-24.8 16.288-24.8 31.2s10.272 27.84 24.8 31.2l416 96c2.368 0.512 4.768 0.8 7.2 0.8s4.832-0.288 7.2-0.8l416-96c14.496-3.36 24.8-16.288 24.8-31.2s-10.304-27.84-24.8-31.2l-416-96zM928 544c0 17.696 14.304 32 32 32 17.664 0 32-14.304 32-32v-288c0-17.696-14.336-32-32-32-17.696 0-32 14.304-32 32v288zM960 192c35.328 0 64-92.672 64-128s-28.672-64-64-64c-35.36 0-64 28.672-64 64s28.64 128 64 128z" />
<glyph unicode="&#xe608;" d="M800 960c-65.696 0-117.312-45.12-154.368-114.752l-0.672 0.384c-53.824-105.376-133.952-173.632-221.728-173.632h-295.232c-71.776 0-128-70.304-128-160 0-89.76 56.224-160 128-160 35.296-0.128 63.84-28.672 63.84-64v-288c0-35.36 28.672-64 64-64h128c35.328 0 64 28.64 64 64v32c0 32-32 46.304-32 64v224c0 0.736 0.512 1.248 0.576 1.984 0.32 4.576 1.568 8.8 3.584 12.64 0.576 1.056 1.184 1.888 1.888 2.816 2.56 3.808 5.792 6.944 9.728 9.376 0.192 0.128 0.256 0.32 0.448 0.448 0.128 0 0.224 0.128 0.352 0.128 2.56 1.44 5.632 1.76 8.512 2.56 80.768-8.576 153.888-73.76 204.064-171.936l0.8 0.384c37.088-69.408 88.576-114.4 154.208-114.4 147.072 0 224 225.376 224 448s-76.928 448-224 448zM640 512c0 33.184 1.952 65.248 5.248 96h90.752c35.328 0 64-43.008 64-96 0-53.056-28.672-96-64-96h-90.752c-3.296 30.752-5.248 62.752-5.248 96zM64 512c0 52.992 28.672 96 64 96h224.448c-19.84-23.328-32.448-57.184-32.448-96 0-38.88 12.608-72.736 32.448-96h-224.448c-35.328 0-64 42.944-64 96zM383.84 0h-128v288c0 23.328-6.24 45.12-17.184 64h22.336v-0.384h96.256c-3.424-9.952-5.408-20.512-5.408-31.616v-224c0-30.816 17.216-51.328 27.488-63.552 1.408-1.696 3.072-3.424 4.512-5.312v-27.136zM423.232 415.616h-7.232v0.384c-35.328 0-64 42.944-64 96 0 52.992 28.672 96 64 96h7.232c60.352 0 116.864 23.744 166.592 64.576-9.152-51.52-13.824-106.080-13.824-160.576 0-54.688 4.672-109.44 13.888-160.992-49.76 40.864-106.304 64.608-166.656 64.608zM800 128c-64.576 0-120 91.872-145.312 224h81.312c71.744 0 128 70.24 128 160 0 89.696-56.256 160-128 160h-81.312c25.312 132.064 80.736 224 145.312 224 88.384 0 160-171.936 160-384s-71.616-384-160-384z" />
<glyph unicode="&#xe609;" d="M0 128v329.143q0 22.857 16 38.857t38.857 16h18.286v109.714q0 105.143 75.429 180.571t180.571 75.429 180.571-75.429 75.429-180.571v-109.714h18.286q22.857 0 38.857-16t16-38.857v-329.143q0-22.857-16-38.857t-38.857-16h-548.571q-22.857 0-38.857 16t-16 38.857zM182.857 512h292.571v109.714q0 60.571-42.857 103.429t-103.429 42.857-103.429-42.857-42.857-103.429v-109.714z" horiz-adv-x="658" />
<glyph unicode="&#xe60a;" d="M0 329.143v219.429q0 14.857 10.857 25.714t25.714 10.857h149.714l190.286 190.286q10.857 10.857 25.714 10.857t25.714-10.857 10.857-25.714v-621.714q0-14.857-10.857-25.714t-25.714-10.857-25.714 10.857l-190.286 190.286h-149.714q-14.857 0-25.714 10.857t-10.857 25.714z" horiz-adv-x="439" />
<glyph unicode="&#xe60b;" d="M0 329.143v219.429q0 14.857 10.857 25.714t25.714 10.857h149.714l190.286 190.286q10.857 10.857 25.714 10.857t25.714-10.857 10.857-25.714v-621.714q0-14.857-10.857-25.714t-25.714-10.857-25.714 10.857l-190.286 190.286h-149.714q-14.857 0-25.714 10.857t-10.857 25.714zM518.857 338.286q0 12 6.857 20.286t16.571 14.286 19.429 13.143 16.571 20.286 6.857 32.571-6.857 32.571-16.571 20.286-19.429 13.143-16.571 14.286-6.857 20.286q0 15.429 10.857 26t25.714 10.571q8.571 0 14.286-2.857 40-15.429 64.286-53.143t24.286-81.143-24.286-80.857-64.286-53.429q-5.714-2.857-14.286-2.857-14.857 0-25.714 10.571t-10.857 26zM576 203.428q0 22.286 22.286 33.714 32 16.571 43.429 25.143 42.286 30.857 66 77.429t23.714 99.143-23.714 99.143-66 77.429q-11.429 8.571-43.429 25.143-22.286 11.429-22.286 33.714 0 14.857 10.857 25.714t25.714 10.857q7.429 0 14.857-2.857 80-33.714 128.571-107.714t48.571-161.429-48.571-161.429-128.571-107.714q-7.429-2.857-14.286-2.857-15.429 0-26.286 10.857t-10.857 25.714zM633.714 69.143q0 20.571 22.286 33.714 4 2.286 12.857 6t12.857 6q26.286 14.286 46.857 29.143 70.286 52 109.714 129.714t39.429 165.143-39.429 165.143-109.714 129.714q-20.571 14.857-46.857 29.143-4 2.286-12.857 6t-12.857 6q-22.286 13.143-22.286 33.714 0 14.857 10.857 25.714t25.714 10.857q7.429 0 14.857-2.857 120.571-52 193.143-162t72.571-241.429-72.571-241.429-193.143-162q-7.429-2.857-14.857-2.857-14.857 0-25.714 10.857t-10.857 25.714z" horiz-adv-x="951" />
<glyph unicode="&#xe60c;" d="M5.714 178.286q0 2.286 1.714 15.429t2.286 21.143q0.571 4.571-1.714 12.286t-1.714 11.143q1.143 6.286 4.571 12t9.429 13.429 9.429 13.429q13.143 21.714 25.714 52.286t17.143 52.286q1.714 5.714 0.286 17.143t-0.286 16q1.714 6.286 9.714 16t9.714 13.143q12 20.571 24 52.571t14.286 51.429q0.571 5.143-1.429 18.286t0.286 16q2.286 7.429 12.571 17.429t12.571 12.857q10.857 14.857 24.286 48.286t15.714 55.143q0.571 4.571-1.714 14.571t-1.143 15.143q1.143 4.571 5.143 10.286t10.286 13.143 9.714 12q4.571 6.857 9.429 17.429t8.571 20 9.143 20.571 11.143 18.286 15.143 13.429 20.571 6.571 27.143-3.143l-0.571-1.714q21.714 5.143 29.143 5.143h434.857q42.286 0 65.143-32t10.286-74.286l-156.571-517.714q-20.571-68-40.857-87.714t-73.429-19.714h-496.571q-15.429 0-21.714-8.571-6.286-9.143-0.571-24.571 13.714-40 82.286-40h527.429q16.571 0 32 8.857t20 23.714l171.429 564q4 12.571 2.857 32.571 21.714-8.571 33.714-24.571 22.857-32.571 10.286-73.714l-157.143-517.714q-10.857-36.571-43.714-61.429t-70-24.857h-527.429q-44 0-84.857 30.571t-56.857 75.143q-13.714 38.286-1.143 72.571zM281.143 530.286q-2.286-7.429 1.143-12.857t11.429-5.429h347.429q7.429 0 14.571 5.429t9.429 12.857l12 36.571q2.286 7.429-1.143 12.857t-11.429 5.429h-347.429q-7.429 0-14.571-5.429t-9.429-12.857zM328.571 676.571q-2.286-7.429 1.143-12.857t11.429-5.429h347.429q7.429 0 14.571 5.429t9.429 12.857l12 36.571q2.286 7.429-1.143 12.857t-11.429 5.429h-347.429q-7.429 0-14.571-5.429t-9.429-12.857z" horiz-adv-x="951" />
<glyph unicode="&#xe60d;" d="M0 164.571v237.714q0 45.143 32.286 77.429t77.429 32.286h36.571v310.857q0 22.857 16 38.857t38.857 16h384q22.857 0 50.286-11.429t43.429-27.429l86.857-86.857q16-16 27.429-43.429t11.429-50.286v-146.286h36.571q45.143 0 77.429-32.286t32.286-77.429v-237.714q0-7.429-5.429-12.857t-12.857-5.429h-128v-91.429q0-22.857-16-38.857t-38.857-16h-548.571q-22.857 0-38.857 16t-16 38.857v91.429h-128q-7.429 0-12.857 5.429t-5.429 12.857zM219.429 73.143h512v146.286h-512v-146.286zM219.429 438.857h512v219.429h-91.429q-22.857 0-38.857 16t-16 38.857v91.429h-365.714v-365.714zM804.571 402.286q0-14.857 10.857-25.714t25.714-10.857 25.714 10.857 10.857 25.714-10.857 25.714-25.714 10.857-25.714-10.857-10.857-25.714z" horiz-adv-x="951" />
<glyph unicode="&#xe60e;" d="M0 146.286v512q0 60.571 42.857 103.429t103.429 42.857h128l29.143 77.714q10.857 28 39.714 48.286t59.143 20.286h292.571q30.286 0 59.143-20.286t39.714-48.286l29.143-77.714h128q60.571 0 103.429-42.857t42.857-103.429v-512q0-60.571-42.857-103.429t-103.429-42.857h-804.571q-60.571 0-103.429 42.857t-42.857 103.429zM292.571 402.286q0-105.714 75.143-180.857t180.857-75.143 180.857 75.143 75.143 180.857-75.143 180.857-180.857 75.143-180.857-75.143-75.143-180.857zM384 402.286q0 68 48.286 116.286t116.286 48.286 116.286-48.286 48.286-116.286-48.286-116.286-116.286-48.286-116.286 48.286-48.286 116.286z" horiz-adv-x="1097" />
<glyph unicode="&#xe60f;" d="M661.824 840.576c-15.136 15.104-35.2 23.424-56.576 23.424s-41.44-8.32-56.64-23.456l-45.12-45.184c-15.136-15.104-23.488-35.2-23.488-56.608 0-15.072 4.128-29.504 11.872-42.016l-434.464-174.048c-29.056-12.768-49.888-38.976-55.744-70.048-5.92-31.264 4-63.328 26.688-85.984l407.040-402.56c17.536-17.536 40.832-27.488 65.44-28.064 0.576-0.032 1.92-0.032 2.496-0.032 6.464 0 13.024 0.672 19.52 1.984 31.808 6.592 57.856 28.576 69.664 58.496l170.944 428.032c12.864-8.48 28-13.024 43.744-13.024 21.44 0 41.504 8.352 56.576 23.456l45.024 45.056c15.264 15.168 23.616 35.296 23.616 56.736s-8.384 41.6-23.424 56.576l-247.168 247.264zM533.088 20.256c-3.968-10.016-12.704-17.408-23.264-19.584-2.432-0.512-4.896-0.704-7.328-0.672-8.128 0.192-15.968 3.456-21.824 9.344l-407.296 402.816c-7.488 7.456-10.784 18.144-8.8 28.576 1.952 10.368 8.928 19.136 18.624 23.36l198.944 79.68c134.048-44.576 268.128-1.632 402.24-144.704l-151.296-378.816zM863.744 525.44l-45.248-45.216c-6.24-6.272-16.384-6.272-22.624 0l-56.576 56.544-45.824-114.848 3.808 9.696c-96.32 96.16-194.208 108.288-282.528 119.136-28.384 3.488-55.904 7.136-82.944 12.96l271.712 108.832-54.88 54.88c-6.24 6.24-6.24 16.384 0 22.624l45.248 45.28c6.24 6.24 16.384 6.24 22.624 0l247.2-247.264c6.336-6.24 6.336-16.384 0.032-22.624zM528 288c44.096 0 80 35.872 80 80s-35.872 80-80 80c-44.128 0-80-35.872-80-80s35.904-80 80-80zM528 416c26.496 0 48-21.504 48-48s-21.504-48-48-48c-26.528 0-48 21.504-48 48s21.472 48 48 48zM944 960c-44.128 0-80-35.872-80-80s35.872-80 80-80 80 35.872 80 80-35.872 80-80 80zM944 832c-26.496 0-48 21.504-48 48s21.504 48 48 48 48-21.504 48-48-21.504-48-48-48zM256 416c0-35.296 28.704-64 64-64s64 28.704 64 64-28.704 64-64 64-64-28.704-64-64zM320 448c17.664 0 32-14.304 32-32s-14.336-32-32-32-32 14.304-32 32 14.336 32 32 32zM384 224c0 17.673 14.327 32 32 32s32-14.327 32-32c0-17.673-14.327-32-32-32s-32 14.327-32 32zM896 704c0 17.673 14.327 32 32 32s32-14.327 32-32c0-17.673-14.327-32-32-32s-32 14.327-32 32z" />
<glyph unicode="&#xe610;" d="M0 438.857q0 119.429 58.857 220.286t159.714 159.714 220.286 58.857 220.286-58.857 159.714-159.714 58.857-220.286-58.857-220.286-159.714-159.714-220.286-58.857-220.286 58.857-159.714 159.714-58.857 220.286zM182.857 402.286q0-14.857 10.857-25.714t25.714-10.857h146.286v-146.286q0-14.857 10.857-25.714t25.714-10.857h73.143q14.857 0 25.714 10.857t10.857 25.714v146.286h146.286q14.857 0 25.714 10.857t10.857 25.714v73.143q0 14.857-10.857 25.714t-25.714 10.857h-146.286v146.286q0 14.857-10.857 25.714t-25.714 10.857h-73.143q-14.857 0-25.714-10.857t-10.857-25.714v-146.286h-146.286q-14.857 0-25.714-10.857t-10.857-25.714v-73.143z" />
<glyph unicode="&#xe611;" d="M0 438.857q0 119.429 58.857 220.286t159.714 159.714 220.286 58.857 220.286-58.857 159.714-159.714 58.857-220.286-58.857-220.286-159.714-159.714-220.286-58.857-220.286 58.857-159.714 159.714-58.857 220.286zM182.857 402.286q0-14.857 10.857-25.714t25.714-10.857h438.857q14.857 0 25.714 10.857t10.857 25.714v73.143q0 14.857-10.857 25.714t-25.714 10.857h-438.857q-14.857 0-25.714-10.857t-10.857-25.714v-73.143z" />
<glyph unicode="&#xe612;" d="M0 438.857q0 119.429 58.857 220.286t159.714 159.714 220.286 58.857 220.286-58.857 159.714-159.714 58.857-220.286-58.857-220.286-159.714-159.714-220.286-58.857-220.286 58.857-159.714 159.714-58.857 220.286zM221.143 309.714q0-15.429 10.857-26.286l51.429-51.429q10.857-10.857 26.286-10.857 14.857 0 25.714 10.857l103.429 103.429 103.429-103.429q10.857-10.857 25.714-10.857 15.429 0 26.286 10.857l51.429 51.429q10.857 10.857 10.857 26.286 0 14.857-10.857 25.714l-103.429 103.429 103.429 103.429q10.857 10.857 10.857 25.714 0 15.429-10.857 26.286l-51.429 51.429q-10.857 10.857-26.286 10.857-14.857 0-25.714-10.857l-103.429-103.429-103.429 103.429q-10.857 10.857-25.714 10.857-15.429 0-26.286-10.857l-51.429-51.429q-10.857-10.857-10.857-26.286 0-14.857 10.857-25.714l103.429-103.429-103.429-103.429q-10.857-10.857-10.857-25.714z" />
<glyph unicode="&#xe613;" d="M0 438.857q0 119.429 58.857 220.286t159.714 159.714 220.286 58.857 220.286-58.857 159.714-159.714 58.857-220.286-58.857-220.286-159.714-159.714-220.286-58.857-220.286 58.857-159.714 159.714-58.857 220.286zM144 428q0-15.429 10.286-25.714l206.857-206.857q10.857-10.857 25.714-10.857 15.429 0 26.286 10.857l310.286 310.286q10.286 10.286 10.286 25.714 0 16-10.286 26.286l-52 51.429q-10.857 10.857-25.714 10.857t-25.714-10.857l-233.143-232.571-129.143 129.143q-10.857 10.857-25.714 10.857t-25.714-10.857l-52-51.429q-10.286-10.286-10.286-26.286z" />
<glyph unicode="&#xe614;" d="M36.571 402.286q0 29.714 21.143 52l372 371.429q21.714 21.714 52 21.714 29.714 0 51.429-21.714l42.857-42.286q21.714-21.714 21.714-52t-21.714-52l-167.429-167.429h402.286q29.714 0 48.286-21.429t18.571-51.714v-73.143q0-30.286-18.571-51.714t-48.286-21.429h-402.286l167.429-168q21.714-20.571 21.714-51.429t-21.714-51.429l-42.857-43.429q-21.143-21.143-51.429-21.143-29.714 0-52 21.143l-372 372.571q-21.143 21.143-21.143 51.429z" />
<glyph unicode="&#xe615;" d="M0 365.714v73.143q0 30.286 18.571 51.714t48.286 21.429h402.286l-167.429 168q-21.714 20.571-21.714 51.429t21.714 51.429l42.857 42.857q21.714 21.714 51.429 21.714 30.286 0 52-21.714l372-372q21.143-20 21.143-51.429 0-30.857-21.143-52l-372-372q-22.286-21.143-52-21.143-29.143 0-51.429 21.143l-42.857 42.857q-21.714 21.714-21.714 52t21.714 52l167.429 167.429h-402.286q-29.714 0-48.286 21.429t-18.571 51.714z" />
<glyph unicode="&#xe616;" d="M30.286 396q0 30.286 21.714 52l372 372q20 21.143 51.429 21.143 30.857 0 52-21.143l372-372q21.143-22.286 21.143-52 0-29.143-21.143-51.429l-42.857-42.857q-21.714-21.714-52-21.714-30.857 0-51.429 21.714l-168 167.429v-402.286q0-29.714-21.429-48.286t-51.714-18.571h-73.143q-30.286 0-51.714 18.571t-21.429 48.286v402.286l-168-167.429q-20.571-21.714-51.429-21.714t-51.429 21.714l-42.857 42.857q-21.714 21.714-21.714 51.429z" horiz-adv-x="951" />
<glyph unicode="&#xe617;" d="M30.286 475.428q0 30.286 21.714 52l42.286 42.857q22.286 21.143 52 21.143 30.286 0 51.429-21.143l168-168v402.286q0 29.714 21.714 51.429t51.429 21.714h73.143q29.714 0 51.429-21.714t21.714-51.429v-402.286l168 168q21.143 21.143 51.429 21.143 29.714 0 52-21.143l42.857-42.857q21.143-22.286 21.143-52 0-30.286-21.143-51.429l-372-372.571q-22.286-21.143-52-21.143-30.286 0-51.429 21.143l-372 372.571q-21.714 20.571-21.714 51.429z" horiz-adv-x="951" />
<glyph unicode="&#xe618;" d="M0 420.571v109.714q0 22.857 16 38.857t38.857 16h237.714v237.714q0 22.857 16 38.857t38.857 16h109.714q22.857 0 38.857-16t16-38.857v-237.714h237.714q22.857 0 38.857-16t16-38.857v-109.714q0-22.857-16-38.857t-38.857-16h-237.714v-237.714q0-22.857-16-38.857t-38.857-16h-109.714q-22.857 0-38.857 16t-16 38.857v237.714h-237.714q-22.857 0-38.857 16t-16 38.857z" horiz-adv-x="805" />
<glyph unicode="&#xe619;" d="M0 420.571v109.714q0 22.857 16 38.857t38.857 16h694.857q22.857 0 38.857-16t16-38.857v-109.714q0-22.857-16-38.857t-38.857-16h-694.857q-22.857 0-38.857 16t-16 38.857z" horiz-adv-x="805" />
<glyph unicode="&#xe61a;" d="M0 142.286q0 20 17.714 42t38.857 37.429 38.857 32 17.714 27.429q0 2.286-8 21.714t-9.143 25.143q-5.143 29.143-5.143 59.429 0 65.714 24.857 125.714t68 105.429 97.429 79.429 116.571 54.571q31.429 10.286 82.857 14.571t102.571 5.143 102 3.429 93.429 13.714 64.857 32.286l16.857 16.857t16.857 16 15.429 11.429 20.857 9.143 24.857 2.571q22.286 0 40.286-26.286t27.143-64 13.714-70.857 4.571-54.857q0-54.286-11.429-110.286-26.286-128-105.429-218.857t-204.286-153.143q-122.286-61.714-250.286-61.714-84.571 0-163.429 26.857-8.571 2.857-50.286 24t-54.857 21.143q-9.143 0-22.571-18.286t-25.714-40-30-40-34.286-18.286q-17.143 0-29.143 6.286t-17.714 13.714-15.429 24q-1.143 2.286-3.429 6.286t-3.143 5.714-1.714 5.429-0.857 7.714zM219.429 329.143q0-14.857 10.857-25.714t25.714-10.857q13.714 0 25.714 10.857 15.429 13.714 42.286 40.571t38.286 37.714q78.286 70.857 153.429 100.571t179.143 29.714q14.857 0 25.714 10.857t10.857 25.714-10.857 25.714-25.714 10.857q-98.286 0-181.714-28.286t-148.286-76.571-134.571-125.429q-10.857-12-10.857-25.714z" />
<glyph unicode="&#xe61b;" d="M0 402.286q0 19.429 11.429 39.429 80 130.857 215.143 210.286t285.429 79.429 285.429-79.429 215.143-210.286q11.429-20 11.429-39.429t-11.429-39.429q-80-131.429-215.143-210.571t-285.429-79.143-285.429 79.429-215.143 210.286q-11.429 20-11.429 39.429zM73.143 402.286q76-117.143 190.571-186.571t248.286-69.429 248.286 69.429 190.571 186.571q-86.857 134.857-217.714 201.714 34.857-59.429 34.857-128.571 0-105.714-75.143-180.857t-180.857-75.143-180.857 75.143-75.143 180.857q0 69.143 34.857 128.571-130.857-66.857-217.714-201.714zM338.286 475.428q0-11.429 8-19.429t19.429-8 19.429 8 8 19.429q0 49.143 34.857 84t84 34.857q11.429 0 19.429 8t8 19.429-8 19.429-19.429 8q-71.429 0-122.571-51.143t-51.143-122.571z" />
<glyph unicode="&#xe61c;" d="M0 345.714q-0.571 7.429 5.143 14.286l54.857 55.429q5.143 5.143 13.143 5.143 3.429 0 4.571-0.571l110.857-30.286 148 148-290.286 159.429q-8 4.571-9.714 13.714-1.143 9.143 5.143 15.429l73.143 73.143q8 7.429 17.143 4.571l380-90.857 91.429 91.429q43.429 43.429 98.286 61.714t84.571-6.857q25.143-29.714 6.857-84.571t-61.714-98.286l-92-92 91.429-397.714q2.857-10.857-6.857-18.857l-73.143-54.857q-4-3.429-10.857-3.429-2.286 0-4 0.571-8.571 1.714-12 9.143l-159.429 290.286-148-148 30.286-110.857q2.857-9.714-4.571-17.714l-54.857-54.857q-5.143-5.143-13.143-5.143h-1.143q-8.571 1.143-13.714 7.429l-108 144-144 108q-6.286 4-7.429 13.143z" horiz-adv-x="805" />
<glyph unicode="&#xe61d;" d="M0 768q0 14.857 10.857 25.714t25.714 10.857h146.286q9.143 0 16.286-3.714t11.429-8.857 7.429-14 4.286-15.143 3.143-16.857 2.571-14.571h686.286q14.857 0 25.714-10.857t10.857-25.714v-292.571q0-13.714-9.143-24.286t-23.429-12.286l-596.571-69.714q0.571-4 2.571-12.286t3.429-15.143 1.429-12.571q0-9.143-13.714-36.571h525.714q14.857 0 25.714-10.857t10.857-25.714-10.857-25.714-25.714-10.857h-585.143q-14.857 0-25.714 10.857t-10.857 25.714q0 8 6.286 22.571t16.857 34 11.714 21.714l-101.143 470.286h-116.571q-14.857 0-25.714 10.857t-10.857 25.714zM219.429 73.143q0 30.286 21.429 51.714t51.714 21.429 51.714-21.429 21.429-51.714-21.429-51.714-51.714-21.429-51.714 21.429-21.429 51.714zM731.429 73.143q0 30.286 21.429 51.714t51.714 21.429 51.714-21.429 21.429-51.714-21.429-51.714-51.714-21.429-51.714 21.429-21.429 51.714z" horiz-adv-x="951" />
<glyph unicode="&#xe61e;" d="M0 201.143v548.571q0 52.571 37.714 90.286t90.286 37.714h182.857q52.571 0 90.286-37.714t37.714-90.286v-18.286h310.857q52.571 0 90.286-37.714t37.714-90.286v-91.429h-475.429q-53.714 0-112.571-27.143t-93.714-68.286l-195.429-229.714q0 2.286-0.286 7.143t-0.286 7.143zM41.714 105.143q0 17.714 17.714 37.714l192 226.286q24.571 29.143 68.857 49.429t82 20.286h621.714q19.429 0 34.571-7.429t15.143-24.571q0-17.714-17.714-37.714l-192-226.286q-24.571-29.143-68.857-49.429t-82-20.286h-621.714q-19.429 0-34.571 7.429t-15.143 24.571z" horiz-adv-x="1097" />
<glyph unicode="&#xe61f;" d="M0 164.571v548.571q0 68 48.286 116.286t116.286 48.286h548.571q68 0 116.286-48.286t48.286-116.286v-548.571q0-68-48.286-116.286t-116.286-48.286h-548.571q-68 0-116.286 48.286t-48.286 116.286zM146.286 236.571q84.571-53.714 184-53.714 64 0 120 20.286t96 54.286 68.857 78.286 42.857 92.571 14 96.286q0 10.286-0.571 15.429 36 25.714 60 62.286-32-14.286-69.143-19.429 38.857 22.857 53.143 66.857-37.143-21.714-76.571-29.143-34.857 37.714-87.429 37.714-49.714 0-84.857-35.143t-35.143-84.857q0-16.571 2.857-27.429-73.714 4-138.286 37.143t-109.714 88.571q-16.571-28.571-16.571-60.571 0-65.143 52-100-26.857 0.571-57.143 14.857v-1.143q0-42.857 28.571-76.286t70.286-41.429q-16.571-4.571-29.143-4.571-7.429 0-22.286 2.286 12-36 42.571-59.429t69.429-24q-66.286-51.429-149.143-51.429-14.857 0-28.571 1.714z" />
<glyph unicode="&#xe620;" d="M0 164.571v548.571q0 68 48.286 116.286t116.286 48.286h548.571q68 0 116.286-48.286t48.286-116.286v-548.571q0-68-48.286-116.286t-116.286-48.286h-109.714v347.429h116l17.143 128h-133.143v81.714q0 30.857 16 47.429t54.857 16.571l75.429 0.571v118.286q-54.857 5.143-102.857 5.143-77.714 0-124.571-46t-46.857-128.857v-94.857h-128v-128h128v-347.429h-310.857q-68 0-116.286 48.286t-48.286 116.286z" />
<glyph unicode="&#xe621;" d="M0 386.857v105.714q0 5.714 4 11.143t9.143 6l88.571 13.714q6.286 20 18.286 43.429-19.429 27.429-51.429 65.714-4 6.286-4 11.429 0 6.857 4 11.429 12.571 17.143 46.857 50.857t45.143 33.714q6.286 0 12-4l65.714-51.429q19.429 10.286 44 18.286 6.286 61.714 13.143 88 4 13.714 17.143 13.714h106.286q6.286 0 11.429-4.286t5.714-10l13.143-87.429q19.429-5.714 42.857-17.714l67.429 50.857q4.571 4 11.429 4 6.286 0 12-4.571 82.286-76 82.286-91.429 0-5.143-4-10.857-6.857-9.143-24-30.857t-25.714-34.286q13.143-27.429 19.429-46.857l86.857-13.143q5.714-1.143 9.714-6t4-11.143v-105.714q0-5.714-4-11.143t-9.143-6l-88.571-13.714q-6.286-20-18.286-43.429 19.429-27.429 51.429-65.714 4-5.714 4-11.429 0-6.857-4-10.857-13.143-17.143-47.143-51.143t-44.857-34q-6.286 0-12 4l-65.714 51.429q-21.143-10.857-44-17.714-6.286-61.714-13.143-88.571-4-13.714-17.143-13.714h-106.286q-6.286 0-11.429 4.286t-5.714 10l-13.143 87.429q-19.429 5.714-42.857 17.714l-67.429-50.857q-4-4-11.429-4-6.286 0-12 4.571-82.286 76-82.286 91.429 0 5.143 4 10.857 5.714 8 23.429 30.286t26.857 34.857q-13.143 25.143-20 46.857l-86.857 13.714q-5.714 0.571-9.714 5.429t-4 11.143zM219.429 438.857q0-60.571 42.857-103.429t103.429-42.857 103.429 42.857 42.857 103.429-42.857 103.429-103.429 42.857-103.429-42.857-42.857-103.429zM658.286 106.286v80q0 9.143 85.143 17.714 7.429 16.571 17.143 29.714-29.143 64.571-29.143 78.857 0 2.286 2.286 4 2.286 1.143 20 11.429t33.714 19.429 17.143 9.143q4.571 0 26.286-26.571t29.714-38.571q11.429 1.143 17.143 1.143t17.143-1.143q29.143 40.571 52.571 64l3.429 1.143q2.286 0 70.857-40 2.286-1.714 2.286-4 0-14.286-29.143-78.857 9.714-13.143 17.143-29.714 85.143-8.571 85.143-17.714v-80q0-9.143-85.143-17.714-6.857-15.429-17.143-29.714 29.143-64.571 29.143-78.857 0-2.286-2.286-4-69.714-40.571-70.857-40.571-4.571 0-26.286 26.857t-29.714 38.857q-11.429-1.143-17.143-1.143t-17.143 1.143q-8-12-29.714-38.857t-26.286-26.857q-1.143 0-70.857 40.571-2.286 1.714-2.286 4 0 14.286 29.143 78.857-10.286 14.286-17.143 29.714-85.143 8.571-85.143 17.714zM658.286 691.428v80q0 9.143 85.143 17.714 7.429 16.571 17.143 29.714-29.143 64.571-29.143 78.857 0 2.286 2.286 4 2.286 1.143 20 11.429t33.714 19.429 17.143 9.143q4.571 0 26.286-26.571t29.714-38.571q11.429 1.143 17.143 1.143t17.143-1.143q29.143 40.571 52.571 64l3.429 1.143q2.286 0 70.857-40 2.286-1.714 2.286-4 0-14.286-29.143-78.857 9.714-13.143 17.143-29.714 85.143-8.571 85.143-17.714v-80q0-9.143-85.143-17.714-6.857-15.429-17.143-29.714 29.143-64.571 29.143-78.857 0-2.286-2.286-4-69.714-40.571-70.857-40.571-4.571 0-26.286 26.857t-29.714 38.857q-11.429-1.143-17.143-1.143t-17.143 1.143q-8-12-29.714-38.857t-26.286-26.857q-1.143 0-70.857 40.571-2.286 1.714-2.286 4 0 14.286 29.143 78.857-10.286 14.286-17.143 29.714-85.143 8.571-85.143 17.714zM804.571 146.286q0-30.286 21.429-51.714t51.714-21.429 51.714 21.429 21.429 51.714q0 29.714-21.714 51.429t-51.429 21.714-51.429-21.714-21.714-51.429zM804.571 731.428q0-30.286 21.429-51.714t51.714-21.429 51.714 21.429 21.429 51.714q0 29.714-21.714 51.429t-51.429 21.714-51.429-21.714-21.714-51.429z" horiz-adv-x="1097" />
<glyph unicode="&#xe622;" d="M0 512q0 79.429 53.714 146.857t146.571 106.571 202 39.143 202-39.143 146.571-106.571 53.714-146.857-53.714-146.857-146.571-106.571-202-39.143q-49.143 0-100.571 9.143-70.857-50.286-158.857-73.143-20.571-5.143-49.143-9.143h-1.714q-6.286 0-11.714 4.571t-6.571 12q-0.571 1.714-0.571 3.714t0.286 3.714 1.143 3.429l1.429 2.857t2 3.143 2.286 2.857 2.571 2.857 2.286 2.571q2.857 3.429 13.143 14.286t14.857 16.857 12.857 16.571 14.286 22 11.714 25.143q-70.857 41.143-111.429 101.143t-40.571 128zM352 148.571q33.143-2.286 50.286-2.286 92 0 176.571 25.714t150.857 73.714q71.429 52.571 109.714 121.143t38.286 145.143q0 44-13.143 86.857 73.714-40.571 116.571-101.714t42.857-131.429q0-68.571-40.571-128.286t-111.429-100.857q5.714-13.714 11.714-25.143t14.286-22 12.857-16.571 14.857-16.857 13.143-14.286q0.571-0.571 2.286-2.571t2.571-2.857 2.286-2.857 2-3.143l1.429-2.857t1.143-3.429 0.286-3.714-0.571-3.714q-1.714-8-7.429-12.571t-12.571-4q-28.571 4-49.143 9.143-88 22.857-158.857 73.143-51.429-9.143-100.571-9.143-154.857 0-269.714 75.429z" />
<glyph unicode="&#xe623;" d="M0 146.286v365.714q0 30.286 21.429 51.714t51.714 21.429h156.571q20.571 13.714 78.286 88.571 33.143 42.857 61.143 73.143 13.714 14.286 20.286 48.857t17.429 72.286 35.429 61.714q22.286 21.143 51.429 21.143 48 0 86.286-18.571t58.286-58 20-106.286q0-53.143-27.429-109.714h100.571q59.429 0 102.857-43.429t43.429-102.286q0-50.857-28-93.143 5.143-18.857 5.143-39.429 0-44-21.714-82.286 1.714-12 1.714-24.571 0-57.714-34.286-101.714 0.571-79.429-48.571-125.429t-129.714-46h-73.714q-54.857 0-108.286 12.857t-123.714 37.429q-66.286 22.857-78.857 22.857h-164.571q-30.286 0-51.714 21.429t-21.429 51.714zM73.143 182.857q0-14.857 10.857-25.714t25.714-10.857 25.714 10.857 10.857 25.714-10.857 25.714-25.714 10.857-25.714-10.857-10.857-25.714zM219.429 146.286h18.286q7.429 0 18-1.714t18.857-3.714 21.714-6.286 20-6.571 20.286-7.143 16.571-6q120.571-41.714 195.429-41.714h69.143q109.714 0 109.714 95.429 0 14.857-2.857 32 17.143 9.143 27.143 30t10 42-10.286 39.429q30.286 28.571 30.286 68 0 14.286-5.714 31.714t-14.286 27.143q18.286 0.571 30.571 26.857t12.286 46.286q0 29.143-22.286 51.143t-50.857 22h-201.143q0 33.143 27.429 91.143t27.429 91.714q0 56-18.286 82.857t-73.143 26.857q-14.857-14.857-21.714-48.571t-17.429-71.714-34-62.571q-12.571-13.143-44-52-2.286-2.857-13.143-17.143t-18-23.429-19.714-24.286-22.857-25.143-22-20.286-22.857-15.429-20.286-5.143h-18.286v-365.714z" />
<glyph unicode="&#xe624;" d="M0 365.714v365.714q0 30.286 21.429 51.714t51.714 21.429h164.571q12.571 0 78.857 22.857 73.143 25.143 127.429 37.714t114.286 12.571h64q80 0 129.429-45.143t48.857-123.429v-2.857q34.286-44 34.286-101.714 0-12.571-1.714-24.571 21.714-38.286 21.714-82.286 0-20.571-5.143-39.429 28-42.286 28-93.143 0-58.857-43.429-102.286t-102.857-43.429h-100.571q27.429-56.571 27.429-109.714 0-67.429-20-106.286-20-39.429-58.286-58t-86.286-18.571q-29.143 0-51.429 21.143-19.429 18.857-30.857 46.857t-14.571 51.714-10 48.286-17.714 36.571q-27.429 28.571-61.143 72.571-57.714 74.857-78.286 88.571h-156.571q-30.286 0-51.714 21.429t-21.429 51.714zM73.143 694.857q0-14.857 10.857-25.714t25.714-10.857 25.714 10.857 10.857 25.714-10.857 25.714-25.714 10.857-25.714-10.857-10.857-25.714zM219.429 365.714h18.286q9.143 0 20.286-5.143t22.857-15.429 22-20.286 22.857-25.143 19.714-24.286 18-23.429 13.143-17.143q31.429-38.857 44-52 23.429-24.571 34-62.571t17.429-71.714 21.714-48.571q54.857 0 73.143 26.857t18.286 82.857q0 33.714-27.429 91.714t-27.429 91.143h201.143q28.571 0 50.857 22t22.286 51.143q0 20-12.286 46.286t-30.571 26.857q8.571 9.714 14.286 27.143t5.714 31.714q0 39.429-30.286 68 10.286 18.286 10.286 39.429t-10 42-27.143 30q2.857 17.143 2.857 32 0 48.571-28 72t-77.714 23.429h-73.143q-74.857 0-195.429-41.714-2.857-1.143-16.571-6t-20.286-7.143-20-6.571-21.714-6.286-18.857-3.714-18-1.714h-18.286v-365.714z" />
<glyph unicode="&#xe625;" d="M800 544v128c0 159.072-128.928 288-288 288s-288-128.928-288-288v-128c-53.024 0-96-42.976-96-96v-224c0-159.072 128.928-288 288-288h192c159.072 0 288 128.928 288 288v224c0 53.056-43.008 96-96 96zM288 672c0 123.712 100.288 224 224 224s224-100.288 224-224v-128h-64v127.936c0 88.384-71.616 160-160 160s-160-71.616-160-160v-127.936h-64v128zM640 672v-128h-256v128c0 70.688 57.312 128 128 128s128-57.312 128-128zM832 352v-128c0-123.488-100.512-224-224-224h-192c-123.488 0-224 100.512-224 224v224c0 17.664 14.336 32 32 32 21.344 0 42.656 0 64 0h448c21.312 0 42.624 0 64 0 17.632 0 32-14.336 32-32v-96zM512 352c35.328 0 64-28.64 64-64 0-19.488-10.496-56.576-21.312-85.824-8.736-23.616-17.664-42.112-42.688-42.112-23.008 0-33.952 18.688-42.656 42.432-10.688 29.184-21.344 66.080-21.344 85.504 0 35.36 28.672 64 64 64z" />
<glyph unicode="&#xe626;" d="M704.128 960c-176.736 0-320-143.296-320-320 0-41.12 8.608-80.032 22.816-116.128l-388.768-388.736c-11.232-11.264-18.176-21.952-18.176-39.136v-96c0-34.24 29.728-64 64-64h96c17.152 0 28 6.88 39.232 18.048l45.92 45.952h74.976c35.328 0 64 28.672 64 64v64h64c35.328 0 64 28.672 64 64v75.008l75.808 75.872c36.128-14.24 75.008-22.88 116.192-22.88 176.672 0 320 143.296 320 320s-143.328 320-320 320zM704.128 384c-47.36 0-91.264 13.76-129.312 36.224l-11.008-10.976-96.96-96.992c-12-12-18.752-28.256-18.752-45.248v-75.008h-64c-35.328 0-64-28.64-64-64v-64h-74.944c-16.96 0-33.248-6.752-45.248-18.752l-45.376-45.376-90.432 0.128-0.096 91.2 373.28 372.608c0 0 0-0.032 0.032-0.064l47.008 47.008c-22.464 38.048-36.224 81.92-36.224 129.28 0 141.376 114.656 256 256 256s256-114.624 256-256-114.592-256.032-255.968-256.032zM890.24 696.352c-35.872 49.984-79.552 93.6-129.76 129.728-8.16 5.92-18.72 7.392-28.224 4.064-44.448-15.648-74.88-46.048-90.432-90.496-1.184-3.328-1.76-6.784-1.76-10.208 0-6.368 1.984-12.672 5.824-18.016 36-50.048 79.616-93.696 129.696-129.696 8.192-5.888 18.688-7.392 28.192-4.096 44.512 15.552 74.944 46.016 90.56 90.496 1.184 3.328 1.76 6.784 1.76 10.208-0.032 6.368-2.048 12.672-5.856 18.016zM794.24 607.68c-47.296 34.016-88.48 75.2-122.24 121.376 12.384 35.296 35.552 58.464 69.824 71.072 47.328-34.080 88.448-75.168 122.112-121.952-12.512-35.040-35.616-58.080-69.696-70.496z" />
<glyph unicode="&#xe627;" d="M512 960c-194.432 0-352-157.568-352-352 0-128.992 118.016-265.696 160.992-385.76 64.096-179.040 56.992-286.24 191.008-286.24 136 0 126.88 106.688 191.008 285.504 43.104 120.32 160.992 258.496 160.992 386.496 0 194.432-157.632 352-352 352zM594.944 90.368l-158.656-19.808c-5.664 16.384-11.744 35.552-19.136 60.576-0.096 0.32-0.224 0.672-0.288 0.992l198.016 24.736c-2.816-9.44-5.824-19.36-8.448-28.256-4.192-14.368-7.936-26.848-11.488-38.24zM407.552 162.944c-5.824 19.264-12.384 39.552-19.68 61.056h248.512c-3.936-11.488-7.872-23.008-11.264-33.888l-217.568-27.168zM512 0c-32.416 0-47.328 3.744-63.904 40l135.616 16.992c-19.648-52.928-33.952-56.992-71.712-56.992zM661.504 288h-298.656c-15.936 34.56-35.072 69.12-53.952 102.944-41.76 74.72-84.896 152-84.896 217.056 0 158.816 129.184 288 288 288s288-129.184 288-288c0-64.576-43.2-142.272-84.992-217.44-18.688-33.696-37.696-68.192-53.504-102.56zM512 800c8.8 0 16-7.168 16-16s-7.168-16-16-16c-88.224 0-160-71.776-160-160 0-8.832-7.168-16-16-16s-16 7.168-16 16c0 105.888 86.112 192 192 192z" />
<glyph unicode="&#xe628;" d="M0 146.286q108.571 92 164 227.143t55.429 284.857q0 94.286 54.857 149.714t150.857 66.857q-4.571 10.286-4.571 21.143 0 22.857 16 38.857t38.857 16 38.857-16 16-38.857q0-10.857-4.571-21.143 96-11.429 150.857-66.857t54.857-149.714q0-149.714 55.429-284.857t164-227.143q0-29.714-21.714-51.429t-51.429-21.714h-256q0-60.571-42.857-103.429t-103.429-42.857-103.429 42.857-42.857 103.429h-256q-29.714 0-51.429 21.714t-21.714 51.429zM104.571 146.286h741.714q-93.714 103.429-140.857 235.143t-47.143 276.857q0 146.286-182.857 146.286t-182.857-146.286q0-145.143-47.143-276.857t-140.857-235.143zM374.857 73.143q0-41.714 29.429-71.143t71.143-29.429q9.143 0 9.143 9.143t-9.143 9.143q-33.714 0-58 24.286t-24.286 58q0 9.143-9.143 9.143t-9.143-9.143z" horiz-adv-x="951" />
<glyph unicode="&#xe629;" d="M0 438.857q0 119.429 58.857 220.286t159.714 159.714 220.286 58.857 220.286-58.857 159.714-159.714 58.857-220.286-58.857-220.286-159.714-159.714-220.286-58.857-220.286 58.857-159.714 159.714-58.857 220.286zM143.429 438.857q0-15.429 10.286-25.714l258.857-258.857q10.286-10.286 25.714-10.286t25.714 10.286l52 52q10.286 10.286 10.286 25.714t-10.286 25.714l-108 108h286.857q14.857 0 25.714 10.857t10.857 25.714v73.143q0 14.857-10.857 25.714t-25.714 10.857h-286.857l108 108q10.857 10.857 10.857 25.714t-10.857 25.714l-52 52q-10.286 10.286-25.714 10.286t-25.714-10.286l-258.857-258.857q-10.286-10.286-10.286-25.714z" />
<glyph unicode="&#xe62a;" d="M0 438.857q0 119.429 58.857 220.286t159.714 159.714 220.286 58.857 220.286-58.857 159.714-159.714 58.857-220.286-58.857-220.286-159.714-159.714-220.286-58.857-220.286 58.857-159.714 159.714-58.857 220.286zM146.286 402.286q0-14.857 10.857-25.714t25.714-10.857h286.857l-108-108q-10.857-10.857-10.857-25.714t10.857-25.714l52-52q10.286-10.286 25.714-10.286t25.714 10.286l258.857 258.857q10.286 10.286 10.286 25.714t-10.286 25.714l-258.857 258.857q-10.286 10.286-25.714 10.286t-25.714-10.286l-52-52q-10.286-10.286-10.286-25.714t10.286-25.714l108-108h-286.857q-14.857 0-25.714-10.857t-10.857-25.714v-73.143z" />
<glyph unicode="&#xe62b;" d="M0 438.857q0 119.429 58.857 220.286t159.714 159.714 220.286 58.857 220.286-58.857 159.714-159.714 58.857-220.286-58.857-220.286-159.714-159.714-220.286-58.857-220.286 58.857-159.714 159.714-58.857 220.286zM144 439.428q0-15.429 10.286-25.714l52-52q10.286-10.286 25.714-10.286t25.714 10.286l108 108v-286.857q0-14.857 10.857-25.714t25.714-10.857h73.143q14.857 0 25.714 10.857t10.857 25.714v286.857l108-108q10.857-10.857 25.714-10.857t25.714 10.857l52 52q10.286 10.286 10.286 25.714t-10.286 25.714l-258.857 258.857q-10.286 10.286-25.714 10.286t-25.714-10.286l-258.857-258.857q-10.286-10.286-10.286-25.714z" />
<glyph unicode="&#xe62c;" d="M0 438.857q0 119.429 58.857 220.286t159.714 159.714 220.286 58.857 220.286-58.857 159.714-159.714 58.857-220.286-58.857-220.286-159.714-159.714-220.286-58.857-220.286 58.857-159.714 159.714-58.857 220.286zM144 438.286q0-15.429 10.286-25.714l258.857-258.857q10.286-10.286 25.714-10.286t25.714 10.286l258.857 258.857q10.286 10.286 10.286 25.714t-10.286 25.714l-52 52q-10.286 10.286-25.714 10.286t-25.714-10.286l-108-108v286.857q0 14.857-10.857 25.714t-25.714 10.857h-73.143q-14.857 0-25.714-10.857t-10.857-25.714v-286.857l-108 108q-10.857 10.857-25.714 10.857t-25.714-10.857l-52-52q-10.286-10.286-10.286-25.714z" />
<glyph unicode="&#xe62d;" d="M0 438.857q0 119.429 58.857 220.286t159.714 159.714 220.286 58.857 220.286-58.857 159.714-159.714 58.857-220.286-58.857-220.286-159.714-159.714-220.286-58.857-220.286 58.857-159.714 159.714-58.857 220.286zM129.143 632.571q4-4 6.857-4.571 2.286-0.571 2.857-5.143t1.429-6.286 6.571 1.714q5.143-4.571 1.714-10.857 0.571 0.571 25.143-15.429 10.857-9.714 12-12 1.714-6.286-5.714-10.286-0.571 1.143-5.143 5.143t-5.143 2.286q-1.714-2.857 0.286-10.571t6-7.143q-4 0-5.429-9.143t-1.429-20.286-0.571-13.429l1.143-0.571q-1.714-6.857 3.143-19.714t12.286-11.143q-7.429-1.714 11.429-24.571 3.429-4.571 4.571-5.143 1.714-1.143 6.857-4.286t8.571-5.714 5.714-6q2.286-2.857 5.714-12.857t8-13.429q-1.143-3.429 5.429-11.429t6-13.143q-0.571 0-1.429-0.571t-1.429-0.571q1.714-4 8.857-8t8.857-7.429q0.571-1.714 1.143-5.714t1.714-6.286 4.571-1.143q1.143 11.429-13.714 35.429-8.571 14.286-9.714 16.571-1.714 2.857-3.143 8.857t-2.571 8.286q1.143 0 3.429-0.857t4.857-2 4.286-2.286 1.143-1.714q-1.714-4 1.143-10t6.857-10.571 9.714-10.857 6.857-7.429q3.429-3.429 8-11.143t0-7.714q5.143 0 11.429-5.714t9.714-11.429q2.857-4.571 4.571-14.857t2.857-13.714q1.143-4 4.857-7.714t7.143-5.429l9.143-4.571t7.429-4q2.857-1.143 10.571-6t12.286-6.571q5.714-2.286 9.143-2.286t8.286 1.429 7.714 2q8.571 1.143 16.571-8.571t12-12q20.571-10.857 31.429-6.286-1.143-0.571 0.286-4.286t4.571-8.857 5.143-8.286 3.143-4.857q2.857-3.429 10.286-8.571t10.286-8.571q3.429 2.286 4 5.143-1.714-4.571 4-11.429t10.286-5.714q8 1.714 8 18.286-17.714-8.571-28 10.286 0 0.571-1.429 3.143t-2.286 4.857-1.429 4.857 0 4.286 2.857 1.714q5.143 0 5.714 2t-1.143 7.143-2.286 7.429q-0.571 4.571-6.286 11.429t-6.857 8.571q-2.857-5.143-9.143-4.571t-9.143 5.143q0-0.571-0.857-3.143t-0.857-3.714q-7.429 0-8.571 0.571 0.571 1.714 1.429 10t2 12.857q0.571 2.286 3.143 6.857t4.286 8.286 2.286 7.143-2.571 5.429-10 1.429q-10.857-0.571-14.857-11.429-0.571-1.714-1.714-6t-2.857-6.571-5.143-4q-4-1.714-13.714-1.143t-13.714 2.857q-7.429 4.571-12.857 16.571t-5.429 21.143q0 5.714 1.429 15.143t1.714 14.286-3.143 14q1.714 1.143 5.143 5.429t5.714 6q1.143 0.571 2.571 0.857t2.571 0 2.286 0.857 1.714 3.429q-0.571 0.571-2.286 1.714-1.714 1.714-2.286 1.714 4-1.714 16.286 0.857t15.714-0.857q8.571-6.286 12.571 1.143 0 0.571-1.429 5.429t-0.286 7.714q2.857-15.429 16.571-5.143 1.714-1.714 8.857-2.857t10-2.857q1.714-1.143 4-3.143t3.143-2.571 2.857 0.286 4.857 3.714q5.714-8 6.857-13.714 6.286-22.857 10.857-25.143 4-1.714 6.286-1.143t2.571 5.429 0 8-0.857 7.143l-0.571 4.571v10.286l-0.571 4.571q-8.571 1.714-10.571 6.857t0.857 10.571 8.571 10.571q0.571 0.571 4.571 2t8.857 3.714 7.143 4.571q12 10.857 8.571 20 4 0 6.286 5.143-0.571 0-2.857 1.714t-4.286 2.857-2.571 1.143q5.143 2.857 1.143 9.143 2.857 1.714 4.286 6.286t4.286 5.714q5.143-6.857 12-1.143 4 4.571 0.571 9.143 2.857 4 11.714 6t10.571 5.429q4-1.143 4.571 1.143t0.571 6.857 1.714 6.857q2.286 2.857 8.571 5.143t7.429 2.857l9.714 6.286q1.714 2.286 0 2.286 10.286-1.143 17.714 6.286 5.714 6.286-3.429 11.429 1.714 3.429-1.714 5.429t-8.571 3.143q1.714 0.571 6.571 0.286t6 0.857q8.571 5.714-4 9.143-9.714 2.857-24.571-6.857-1.143-0.571-5.429-5.429t-7.714-5.429q1.143 0 2.571 2.857t2.857 6.286 2 4q3.429 4 12.571 8.571 8 3.429 29.714 6.857 19.429 4.571 29.143-6.286-1.143 1.143 5.429 7.429t8.286 6.857q1.714 1.143 8.571 2.571t8.571 4.286l1.143 12.571q-6.857-0.571-10 4t-3.714 12q0-1.143-3.429-4.571 0 4-2.571 4.571t-6.571-0.571-5.143-0.571q-5.714 1.714-8.571 4.286t-4.571 9.429-2.286 8.571q-1.143 2.857-5.429 6t-5.429 6q-0.571 1.143-1.429 3.143t-1.714 3.714-2.286 3.143-3.143 1.429-4-2.857-4.286-5.714-2.571-2.857q-1.714 1.143-3.429 0.857t-2.571-0.571-2.571-1.714-2.857-2q-1.714-1.143-4.857-1.714t-4.857-1.143q8.571 2.857-0.571 6.286-5.714 2.286-9.143 1.714 5.143 2.286 4.286 6.857t-4.857 8h2.857q-0.571 2.286-4.857 4.857t-10 4.857-7.429 3.429q-4.571 2.857-19.429 5.429t-18.857 0.286q-2.857-3.429-2.571-6t2.286-8 2-7.143q0.571-3.429-3.143-7.429t-3.714-6.857q0-4 8-8.857t5.714-12.286q-1.714-4.571-9.143-9.143t-9.143-6.857q-2.857-4.571-0.857-10.571t6-9.429q1.143-1.143 0.857-2.286t-2-2.571-3.143-2.286-3.714-2l-1.714-1.143q-6.286-2.857-11.714 3.429t-7.714 14.857q-4 14.286-9.143 17.143-13.143 4.571-16.571-0.571-2.857 7.429-23.429 14.857-14.286 5.143-33.143 2.286 3.429 0.571 0 8.571-4 8.571-10.857 6.857 1.714 3.429 2.286 10t0.571 7.714q1.714 7.429 6.857 13.143 0.571 0.571 4 4.857t5.429 7.714 0.286 3.429q20-2.286 28.571 6.286 2.857 2.857 6.571 9.714t6 9.714q5.143 3.429 8 3.143t8.286-3.143 8.286-2.857q8-0.571 8.857 6.286t-4.286 11.429q6.857-0.571 1.714 9.714-2.857 4-4.571 5.143-6.857 2.286-15.429-2.857-4.571-2.286 1.143-4.571-0.571 0.571-5.429-6t-9.429-10-9.143 2.857q-0.571 0.571-3.143 7.714t-5.429 7.714q-4.571 0-9.143-8.571 1.714 4.571-6.286 8.571t-13.714 4.571q10.857 6.857-4.571 15.429-4 2.286-11.714 2.857t-11.143-2.286q-2.857-4-3.143-6.571t2.857-4.571 6-3.143 6.571-2.286 4.857-1.714q8-5.714 4.571-8-1.143-0.571-4.857-2t-6.571-2.571-3.429-2.286q-1.714-2.286 0-8t-1.143-8q-2.857 2.857-5.143 10t-4 9.429q4-5.143-14.286-3.429l-5.714 0.571q-2.286 0-9.143-1.143t-11.714-0.571-7.714 4.571q-2.286 4.571 0 11.429 0.571 2.286 2.286 1.143-2.286 1.714-6.286 5.429t-5.714 4.857q-26.286-8.571-53.714-23.429 3.429-0.571 6.857 0.571 2.857 1.143 7.429 3.714t5.714 3.143q19.429 8 24 4l2.857 2.857q8-9.143 11.429-14.286-4 2.286-17.143 0.571-11.429-3.429-12.571-6.857 4-6.857 2.857-10.286-2.286 1.714-6.571 5.714t-8.286 6.286-8.571 2.857q-9.143 0-12.571-0.571-83.429-45.714-134.286-126.857zM501.143 88q0-3.429 1.143-9.143 117.714 20.571 200.571 108-1.714 1.714-7.143 2.571t-7.143 2q-10.286 4-13.714 4.571 0.571 4-1.429 7.429t-4.571 5.143-7.143 4.571-6.286 4q-1.143 1.143-4 3.429t-4 3.143-4.286 2.571-4.857 1.143-5.714-0.571l-1.714-0.571q-1.714-0.571-3.143-1.429t-3.143-1.714-2.286-1.714 0-1.429q-12 9.714-20.571 12.571-2.857 0.571-6.286 3.143t-6 4-5.714 0.857-6.571-4q-2.857-2.857-3.429-8.571t-1.143-7.429q-4 2.857 0 10t1.143 10.571q-1.714 3.429-6 2.571t-6.857-2.571-6.571-4.857-5.143-3.714-4.857-3.143-4.857-4.286q-1.714-2.286-3.429-6.857t-2.857-6.286q-1.143 2.286-6.571 3.714t-5.429 3.143q1.143-5.714 2.286-20t2.857-21.714q4-17.714-6.857-27.429-15.429-14.286-16.571-22.857-2.286-12.571 6.857-14.857 0-4-4.571-11.714t-4-12.286z" />
<glyph unicode="&#xe62e;" d="M12 73.143q0 30.286 21.714 52l389.143 389.143q22.286-56 65.429-99.143t99.143-65.429l-389.714-389.714q-21.143-21.143-51.429-21.143-29.714 0-52 21.143l-60.571 61.714q-21.714 20.571-21.714 51.429zM146.286 109.714q0-14.857 10.857-25.714t25.714-10.857 25.714 10.857 10.857 25.714-10.857 25.714-25.714 10.857-25.714-10.857-10.857-25.714zM438.857 621.714q0 105.714 75.143 180.857t180.857 75.143q33.143 0 69.429-9.429t61.429-26.571q9.143-6.286 9.143-16t-9.143-16l-167.429-96.571v-128l110.286-61.143q2.857 1.714 45.143 27.714t77.429 46.286 40.286 20.286q8.571 0 13.429-5.714t4.857-14.286q0-22.286-13.143-60.571-26.857-76.571-94-124.286t-147.714-47.714q-105.714 0-180.857 75.143t-75.143 180.857z" horiz-adv-x="951" />
<glyph unicode="&#xe62f;" d="M0 456.571q0 201.714 70.857 201.714 3.429 0 24.857-12t55.714-24.286 68-12.286q38.286 0 76 13.143-2.857-21.143-2.857-37.714 0-79.429 46.286-146.286-92.571-2.857-151.429-73.143h-76.571q-46.857 0-78.857 23.143t-32 67.714zM73.143 804.571q0 60.571 42.857 103.429t103.429 42.857 103.429-42.857 42.857-103.429-42.857-103.429-103.429-42.857-103.429 42.857-42.857 103.429zM146.286 74.857q0 30.286 2 59.143t8 62.286 15.143 62 24.571 55.714 35.429 46.286 48.857 30.571 63.714 11.429q5.714 0 24.571-12.286t41.714-27.429 61.143-27.429 77.143-12.286 77.143 12.286 61.143 27.429 41.714 27.429 24.571 12.286q34.857 0 63.714-11.429t48.857-30.571 35.429-46.286 24.571-55.714 15.143-62 8-62.286 2-59.143q0-68.571-41.714-108.286t-110.857-39.714h-499.429q-69.143 0-110.857 39.714t-41.714 108.286zM329.143 585.143q0 90.857 64.286 155.143t155.143 64.286 155.143-64.286 64.286-155.143-64.286-155.143-155.143-64.286-155.143 64.286-64.286 155.143zM731.429 804.571q0 60.571 42.857 103.429t103.429 42.857 103.429-42.857 42.857-103.429-42.857-103.429-103.429-42.857-103.429 42.857-42.857 103.429zM758.286 438.857q46.286 66.857 46.286 146.286 0 16.571-2.857 37.714 37.714-13.143 76-13.143 33.714 0 68 12.286t55.714 24.286 24.857 12q70.857 0 70.857-201.714 0-44.571-32-67.714t-78.857-23.143h-76.571q-58.857 70.286-151.429 73.143z" horiz-adv-x="1097" />
<glyph unicode="&#xe630;" d="M0 329.143q0 75.429 40.571 138t106.857 93.429q-1.143 16-1.143 24.571 0 121.143 85.714 206.857t206.857 85.714q90.286 0 163.714-50.286t107.143-131.429q40 35.429 94.857 35.429 60.571 0 103.429-42.857t42.857-103.429q0-42.857-23.429-78.857 73.714-17.143 121.714-76.857t48-136.857q0-90.857-64.286-155.143t-155.143-64.286h-621.714q-105.714 0-180.857 75.143t-75.143 180.857z" horiz-adv-x="1097" />
<glyph unicode="&#xe631;" d="M66 36.286q-19.714 36.286 12.286 87.143l287.429 453.143v228h-36.571q-14.857 0-25.714 10.857t-10.857 25.714 10.857 25.714 25.714 10.857h292.571q14.857 0 25.714-10.857t10.857-25.714-10.857-25.714-25.714-10.857h-36.571v-228l287.429-453.143q32-50.857 12.286-87.143t-80.286-36.286h-658.286q-60.571 0-80.286 36.286zM272 292.571h406.857l-155.429 245.143-11.429 17.714v249.143h-73.143v-249.143l-11.429-17.714z" horiz-adv-x="951" />
<glyph unicode="&#xe632;" d="M0.571 162.857q4 43.429 32 84t74.857 70.857q75.429 48 158.857 48 47.429 0 86.286-17.714 5.143 7.429 12.571 12.571l69.714 41.714-69.714 41.714q-7.429 5.143-12.571 12.571-38.857-17.714-86.286-17.714-83.429 0-158.857 48-46.857 30.286-74.857 70.857t-32 84q-2.857 33.714 8.857 64.571t36.286 53.143q48.571 45.143 126.857 45.143 82.857 0 158.286-48 47.429-29.714 75.429-70.286t32-84.571q2.286-27.429-5.714-55.429 2.286-0.571 6.857-2.857l62.857-37.714 394.286 221.143q8 4.571 17.714 4.571 9.143 0 16.571-4l73.143-36.571q17.143-9.143 20-29.143 1.714-20.571-14.286-32l-289.714-227.429 289.714-227.429q16-11.429 14.286-32-2.857-20-20-29.143l-73.143-36.571q-7.429-4-16.571-4-9.714 0-17.714 4.571l-394.286 221.143-62.857-37.714q-4.571-2.286-6.857-2.857 8-28 5.714-55.429-4-44-32-84.286t-75.429-70.571q-75.429-48-158.286-48-77.714 0-126.857 44.571-51.429 48-45.143 118.286zM96 173.714q-14.286-37.714 12-61.714 22.286-20.571 64.571-20.571 57.143 0 109.714 33.714 46.286 29.143 60.571 66.857t-12 61.714q-22.286 20.571-64.571 20.571-57.143 0-109.714-33.714-46.286-29.143-60.571-66.857zM96 630.857q14.286-37.714 60.571-66.857 52.571-33.714 109.714-33.714 42.286 0 64.571 20.571 26.286 24 12 61.714t-60.571 66.857q-52.571 33.714-109.714 33.714-42.286 0-64.571-20.571-26.286-24-12-61.714zM384 329.143l5.143-4.571q1.143-1.143 4-3.429 2.286-2.286 6.286-6.857t6.286-6.857l14.857-14.857 91.429 54.857 54.857-18.286 420.571 329.143-73.143 36.571-438.857-246.286v-64.571zM384 475.428l54.857-33.143v6.286q0 20.571 18.857 32l8 4.571-45.143 26.857-14.857-14.857q-1.714-1.714-5.714-6.286t-6.857-6.857q-1.143-1.143-2.286-2t-1.714-1.429zM512 402.286q0 14.857 10.857 25.714t25.714 10.857 25.714-10.857 10.857-25.714-10.857-25.714-25.714-10.857-25.714 10.857-10.857 25.714zM581.714 296.571l332.571-186.857 73.143 36.571-297.143 233.143-101.143-78.857q-1.143-1.714-7.429-4z" />
<glyph unicode="&#xe633;" d="M0 201.143v384q0 22.857 11.429 50.286t27.429 43.429l233.143 233.143q16 16 43.429 27.429t50.286 11.429h237.714q22.857 0 38.857-16t16-38.857v-187.429q38.857 22.857 73.143 22.857h237.714q22.857 0 38.857-16t16-38.857v-694.857q0-22.857-16-38.857t-38.857-16h-548.571q-22.857 0-38.857 16t-16 38.857v164.571h-310.857q-22.857 0-38.857 16t-16 38.857zM73.143 219.428h292.571v146.286q0 22.857 11.429 50.286t27.429 43.429l180.571 180.571v237.714h-219.429v-237.714q0-22.857-16-38.857t-38.857-16h-237.714v-365.714zM121.714 658.286h170.857v170.857zM438.857 0h512v658.286h-219.429v-237.714q0-22.857-16-38.857t-38.857-16h-237.714v-365.714zM487.429 438.857h170.857v170.857z" />
<glyph unicode="&#xe634;" d="M2.286 657.714q0 90.857 62.857 154.286t153.714 63.429q90.286 0 156-64.571l345.714-346.286q5.714-5.714 5.714-12.571 0-9.143-17.429-26.571t-26.571-17.429q-7.429 0-13.143 5.714l-346.286 346.857q-45.143 44-103.429 44-60.571 0-102.286-42.857t-41.714-103.429q0-60 43.429-103.429l443.429-444q36-36 82.857-36 36.571 0 60.571 24t24 60.571q0 46.857-36 82.857l-332 332q-14.857 13.714-34.286 13.714-16.571 0-27.429-10.857t-10.857-27.429q0-18.286 14.286-33.714l234.286-234.286q5.714-5.714 5.714-12.571 0-9.143-17.714-26.857t-26.857-17.714q-6.857 0-12.571 5.714l-234.286 234.286q-36 34.857-36 85.143 0 46.857 32.571 79.429t79.429 32.571q50.286 0 85.143-36l332-332q57.143-56 57.143-134.286 0-66.857-45.143-112t-112-45.143q-77.143 0-134.286 57.143l-444 443.429q-64.571 65.714-64.571 154.857z" horiz-adv-x="805" />
<glyph unicode="&#xe635;" d="M0 54.857v768q0 22.857 16 38.857t38.857 16h530.286q22.857 0 50.286-11.429t43.429-27.429l160-160q16-16 27.429-43.429t11.429-50.286v-530.286q0-22.857-16-38.857t-38.857-16h-768q-22.857 0-38.857 16t-16 38.857zM73.143 73.143h73.143v237.714q0 22.857 16 38.857t38.857 16h475.429q22.857 0 38.857-16t16-38.857v-237.714h73.143v512q0 8-5.714 22t-11.429 19.714l-160.571 160.571q-5.714 5.714-19.429 11.429t-22.286 5.714v-237.714q0-22.857-16-38.857t-38.857-16h-329.143q-22.857 0-38.857 16t-16 38.857v237.714h-73.143v-731.429zM219.429 73.143h438.857v219.429h-438.857v-219.429zM365.714 603.428q0-7.429 5.429-12.857t12.857-5.429h109.714q7.429 0 12.857 5.429t5.429 12.857v182.857q0 7.429-5.429 12.857t-12.857 5.429h-109.714q-7.429 0-12.857-5.429t-5.429-12.857v-182.857z" />
<glyph unicode="&#xe636;" d="M36.571 182.857q0 14.857 10.857 25.714t25.714 10.857v182.857q0 4.571-0.286 20t0 21.714 1.429 19.714 3.714 21.143 8 17.429 12.857 17.143l113.143 113.143q10.857 10.857 28.857 18.286t33.429 7.429h91.429v109.714q0 14.857 10.857 25.714t25.714 10.857h585.143q14.857 0 25.714-10.857t10.857-25.714v-585.143q0-8.571-2.286-15.143t-7.714-10.571-9.429-6.571-13.429-3.429-12.857-1.143-14.571 0-12.857 0.286q0-60.571-42.857-103.429t-103.429-42.857-103.429 42.857-42.857 103.429h-219.429q0-60.571-42.857-103.429t-103.429-42.857-103.429 42.857-42.857 103.429h-36.571q-1.714 0-12.857-0.286t-14.571 0-12.857 1.143-13.429 3.429-9.429 6.571-7.714 10.571-2.286 15.143zM146.286 438.857h219.429v146.286h-90.286q-7.429 0-12.571-5.143l-111.429-111.429q-5.143-5.143-5.143-12.571v-17.143zM219.429 146.286q0-29.714 21.714-51.429t51.429-21.714 51.429 21.714 21.714 51.429-21.714 51.429-51.429 21.714-51.429-21.714-21.714-51.429zM731.429 146.286q0-29.714 21.714-51.429t51.429-21.714 51.429 21.714 21.714 51.429-21.714 51.429-51.429 21.714-51.429-21.714-21.714-51.429z" />
<glyph unicode="&#xe637;" d="M0 548.571q0 14.857 10.857 25.714t25.714 10.857h512q14.857 0 25.714-10.857t10.857-25.714-10.857-25.714l-256-256q-10.857-10.857-25.714-10.857t-25.714 10.857l-256 256q-10.857 10.857-10.857 25.714z" horiz-adv-x="585" />
<glyph unicode="&#xe638;" d="M0 256q0 14.857 10.857 25.714l256 256q10.857 10.857 25.714 10.857t25.714-10.857l256-256q10.857-10.857 10.857-25.714t-10.857-25.714-25.714-10.857h-512q-14.857 0-25.714 10.857t-10.857 25.714z" horiz-adv-x="585" />
<glyph unicode="&#xe639;" d="M36.571 438.857q0 14.857 10.857 25.714l256 256q10.857 10.857 25.714 10.857t25.714-10.857 10.857-25.714v-512q0-14.857-10.857-25.714t-25.714-10.857-25.714 10.857l-256 256q-10.857 10.857-10.857 25.714z" horiz-adv-x="366" />
<glyph unicode="&#xe63a;" d="M0 182.857v512q0 14.857 10.857 25.714t25.714 10.857 25.714-10.857l256-256q10.857-10.857 10.857-25.714t-10.857-25.714l-256-256q-10.857-10.857-25.714-10.857t-25.714 10.857-10.857 25.714z" horiz-adv-x="366" />
<glyph unicode="&#xe63b;" d="M0 128v768q0 22.857 16 38.857t38.857 16h621.714q22.857 0 38.857-16t16-38.857v-187.429q12-7.429 20.571-16l233.143-233.143q16-16 27.429-43.429t11.429-50.286v-384q0-22.857-16-38.857t-38.857-16h-548.571q-22.857 0-38.857 16t-16 38.857v91.429h-310.857q-22.857 0-38.857 16t-16 38.857zM146.286 822.857q0-7.429 5.429-12.857t12.857-5.429h402.286q7.429 0 12.857 5.429t5.429 12.857v36.571q0 7.429-5.429 12.857t-12.857 5.429h-402.286q-7.429 0-12.857-5.429t-5.429-12.857v-36.571zM438.857 0h512v365.714h-237.714q-22.857 0-38.857 16t-16 38.857v237.714h-219.429v-658.286zM731.429 438.857h170.857l-170.857 170.857v-170.857z" />
<glyph unicode="&#xe63c;" d="M14.857 436.857q0.571 7.714 6.286 12.286l410.857 342.286q18.286 14.857 43.429 14.857t43.429-14.857l139.429-116.571v111.429q0 8 5.143 13.143t13.143 5.143h109.714q8 0 13.143-5.143t5.143-13.143v-233.143l125.143-104q5.714-4.571 6.286-12.286t-4-13.429l-35.429-42.286q-4.571-5.143-12-6.286h-1.714q-7.429 0-12 4l-395.429 329.714-395.429-329.714q-6.857-4.571-13.714-4-7.429 1.143-12 6.286l-35.429 42.286q-4.571 5.714-4 13.429zM146.286 109.714v274.286q0 0.571 0.286 1.714t0.286 1.714l328.571 270.857 328.571-270.857q0.571-1.143 0.571-3.429v-274.286q0-14.857-10.857-25.714t-25.714-10.857h-219.429v219.429h-146.286v-219.429h-219.429q-14.857 0-25.714 10.857t-10.857 25.714z" horiz-adv-x="951" />
<glyph unicode="&#xe63d;" d="M0 329.143q0 74.286 40 137.143t107.429 94.286q-1.143 17.143-1.143 24.571 0 121.143 85.714 206.857t206.857 85.714q89.143 0 163.143-49.714t107.714-132q40.571 35.429 94.857 35.429 60.571 0 103.429-42.857t42.857-103.429q0-43.429-23.429-78.857 74.286-17.714 122-77.429t47.714-136.286q0-90.857-64.286-155.143t-155.143-64.286h-621.714q-105.714 0-180.857 75.143t-75.143 180.857zM292.571 420.571q0-8 5.143-13.143l201.143-201.143q5.143-5.143 13.143-5.143t13.143 5.143l200.571 200.571q5.714 6.857 5.714 13.714 0 8-5.143 13.143t-13.143 5.143h-128v201.143q0 7.429-5.429 12.857t-12.857 5.429h-109.714q-7.429 0-12.857-5.429t-5.429-12.857v-201.143h-128q-7.429 0-12.857-5.429t-5.429-12.857z" horiz-adv-x="1097" />
<glyph unicode="&#xe63e;" d="M0 329.143q0 74.286 40 137.143t107.429 94.286q-1.143 17.143-1.143 24.571 0 121.143 85.714 206.857t206.857 85.714q89.143 0 163.143-49.714t107.714-132q40.571 35.429 94.857 35.429 60.571 0 103.429-42.857t42.857-103.429q0-43.429-23.429-78.857 74.286-17.714 122-77.429t47.714-136.286q0-90.857-64.286-155.143t-155.143-64.286h-621.714q-105.714 0-180.857 75.143t-75.143 180.857zM292.571 457.143q0-8 5.143-13.143t13.143-5.143h128v-201.143q0-7.429 5.429-12.857t12.857-5.429h109.714q7.429 0 12.857 5.429t5.429 12.857v201.143h128q7.429 0 12.857 5.429t5.429 12.857q0 8-5.143 13.143l-201.143 201.143q-5.143 5.143-13.143 5.143t-13.143-5.143l-200.571-200.571q-5.714-6.857-5.714-13.714z" horiz-adv-x="1097" />
<glyph unicode="&#xe63f;" d="M0 148q0 38.857 3.143 74.857t13.714 78.857 27.143 75.714 46.286 58.857 68.571 34.571q-12.571-29.714-12.571-68.571v-116q-33.143-11.429-53.143-40t-20-63.429q0-45.714 32-77.714t77.714-32 77.714 32 32 77.714q0 34.857-20.286 63.429t-52.857 40v116q0 35.429 14.286 53.143 75.429-59.429 168.571-59.429t168.571 59.429q14.286-17.714 14.286-53.143v-36.571q-60.571 0-103.429-42.857t-42.857-103.429v-50.857q-18.286-16.571-18.286-40.571 0-22.857 16-38.857t38.857-16 38.857 16 16 38.857q0 24-18.286 40.571v50.857q0 29.714 21.714 51.429t51.429 21.714 51.429-21.714 21.714-51.429v-50.857q-18.286-16.571-18.286-40.571 0-22.857 16-38.857t38.857-16 38.857 16 16 38.857q0 24-18.286 40.571v50.857q0 38.857-19.714 72.857t-53.429 53.429q0 5.714 0.286 24.286t0 27.429-1.429 23.714-4 26.857-7.429 22.857q38.857-8.571 68.571-34.571t46.286-58.857 27.143-75.714 13.714-78.857 3.143-74.857q0-69.143-41.714-108.571t-110.857-39.429h-499.429q-69.143 0-110.857 39.429t-41.714 108.571zM146.286 182.857q0 14.857 10.857 25.714t25.714 10.857 25.714-10.857 10.857-25.714-10.857-25.714-25.714-10.857-25.714 10.857-10.857 25.714zM182.857 658.286q0 90.857 64.286 155.143t155.143 64.286 155.143-64.286 64.286-155.143-64.286-155.143-155.143-64.286-155.143 64.286-64.286 155.143z" horiz-adv-x="805" />
<glyph unicode="&#xe640;" d="M0 146.286h1024q0-60.571-42.857-103.429t-103.429-42.857h-731.429q-60.571 0-103.429 42.857t-42.857 103.429zM146.286 347.428v420.571q0 14.857 10.857 25.714t25.714 10.857h658.286q90.857 0 155.143-64.286t64.286-155.143-64.286-155.143-155.143-64.286h-36.571v-18.286q0-52.571-37.714-90.286t-90.286-37.714h-402.286q-52.571 0-90.286 37.714t-37.714 90.286zM804.571 475.428h36.571q45.714 0 77.714 32t32 77.714-32 77.714-77.714 32h-36.571v-219.429z" horiz-adv-x="1097" />
<glyph unicode="&#xe641;" d="M0 548.571v365.714q0 14.857 10.857 25.714t25.714 10.857 25.714-10.857 10.857-25.714v-237.714q0-14.857 10.857-25.714t25.714-10.857 25.714 10.857 10.857 25.714v237.714q0 14.857 10.857 25.714t25.714 10.857 25.714-10.857 10.857-25.714v-237.714q0-14.857 10.857-25.714t25.714-10.857 25.714 10.857 10.857 25.714v237.714q0 14.857 10.857 25.714t25.714 10.857 25.714-10.857 10.857-25.714v-365.714q0-34.857-20.286-63.429t-52.857-40v-445.143q0-29.714-21.714-51.429t-51.429-21.714h-73.143q-29.714 0-51.429 21.714t-21.714 51.429v445.143q-32.571 11.429-52.857 40t-20.286 63.429zM438.857 310.857v457.143q0 75.429 53.714 129.143t129.143 53.714h146.286q14.857 0 25.714-10.857t10.857-25.714v-914.286q0-29.714-21.714-51.429t-51.429-21.714h-73.143q-29.714 0-51.429 21.714t-21.714 51.429v292.571h-128q-7.429 0-12.857 5.429t-5.429 12.857z" horiz-adv-x="805" />
<glyph unicode="&#xe642;" d="M36.571 182.857q0 14.857 10.857 25.714t25.714 10.857v237.714q0 14.857 7.429 33.143t18.286 29.143l113.143 113.143q10.857 10.857 29.143 18.286t33.143 7.429h91.429v182.857q0 14.857 10.857 25.714t25.714 10.857h658.286q14.857 0 25.714-10.857t10.857-25.714v-658.286q0-14.857-10.857-25.714t-25.714-10.857h-109.714q0-60.571-42.857-103.429t-103.429-42.857-103.429 42.857-42.857 103.429h-219.429q0-60.571-42.857-103.429t-103.429-42.857-103.429 42.857-42.857 103.429h-73.143q-14.857 0-25.714 10.857t-10.857 25.714zM146.286 438.857h219.429v146.286h-90.286q-8-1.143-12.571-5.143l-111.429-111.429q-4-6.857-5.143-12.571v-17.143zM219.429 146.286q0-30.286 21.429-51.714t51.714-21.429 51.714 21.429 21.429 51.714-21.429 51.714-51.714 21.429-51.714-21.429-21.429-51.714zM512 530.286q0-8 5.143-13.143t13.143-5.143h128v-128q0-8 5.143-13.143t13.143-5.143h109.714q8 0 13.143 5.143t5.143 13.143v128h128q8 0 13.143 5.143t5.143 13.143v109.714q0 8-5.143 13.143t-13.143 5.143h-128v128q0 8-5.143 13.143t-13.143 5.143h-109.714q-8 0-13.143-5.143t-5.143-13.143v-128h-128q-8 0-13.143-5.143t-5.143-13.143v-109.714zM731.429 146.286q0-30.286 21.429-51.714t51.714-21.429 51.714 21.429 21.429 51.714-21.429 51.714-51.714 21.429-51.714-21.429-21.429-51.714z" horiz-adv-x="1097" />
<glyph unicode="&#xe643;" d="M0 128v475.429q0 52.571 37.714 90.286t90.286 37.714h18.286v-731.429h-18.286q-52.571 0-90.286 37.714t-37.714 90.286zM201.143 0v731.429h91.429v91.429q0 22.857 16 38.857t38.857 16h329.143q22.857 0 38.857-16t16-38.857v-91.429h91.429v-731.429h-621.714zM292.571 310.857q0-8 5.143-13.143t13.143-5.143h128v-128q0-8 5.143-13.143t13.143-5.143h109.714q8 0 13.143 5.143t5.143 13.143v128h128q8 0 13.143 5.143t5.143 13.143v109.714q0 8-5.143 13.143t-13.143 5.143h-128v128q0 8-5.143 13.143t-13.143 5.143h-109.714q-8 0-13.143-5.143t-5.143-13.143v-128h-128q-8 0-13.143-5.143t-5.143-13.143v-109.714zM365.714 731.428h292.571v73.143h-292.571v-73.143zM877.714 0v731.429h18.286q52.571 0 90.286-37.714t37.714-90.286v-475.429q0-52.571-37.714-90.286t-90.286-37.714h-18.286z" />
<glyph unicode="&#xe644;" d="M0 237.714v621.714q0 37.714 26.857 64.571t64.571 26.857h914.286q37.714 0 64.571-26.857t26.857-64.571v-621.714q0-37.714-26.857-64.571t-64.571-26.857h-310.857q0-21.143 9.143-44.286t18.286-40.571 9.143-24.857q0-14.857-10.857-25.714t-25.714-10.857h-292.571q-14.857 0-25.714 10.857t-10.857 25.714q0 8 9.143 25.143t18.286 40 9.143 44.571h-310.857q-37.714 0-64.571 26.857t-26.857 64.571zM73.143 384q0-7.429 5.429-12.857t12.857-5.429h914.286q7.429 0 12.857 5.429t5.429 12.857v475.429q0 7.429-5.429 12.857t-12.857 5.429h-914.286q-7.429 0-12.857-5.429t-5.429-12.857v-475.429z" horiz-adv-x="1097" />
<glyph unicode="&#xe645;" d="M0 164.571v621.714q0 37.714 26.857 64.571t64.571 26.857h475.429q37.714 0 64.571-26.857t26.857-64.571v-621.714q0-37.714-26.857-64.571t-64.571-26.857h-475.429q-37.714 0-64.571 26.857t-26.857 64.571zM73.143 237.714q0-7.429 5.429-12.857t12.857-5.429h475.429q7.429 0 12.857 5.429t5.429 12.857v548.571q0 7.429-5.429 12.857t-12.857 5.429h-475.429q-7.429 0-12.857-5.429t-5.429-12.857v-548.571zM292.571 146.286q0-14.857 10.857-25.714t25.714-10.857 25.714 10.857 10.857 25.714-10.857 25.714-25.714 10.857-25.714-10.857-10.857-25.714z" horiz-adv-x="658" />
<glyph unicode="&#xe646;" d="M0 146.286v585.143q0 29.714 21.714 51.429t51.429 21.714h292.571q29.714 0 51.429-21.714t21.714-51.429v-585.143q0-29.714-21.714-51.429t-51.429-21.714h-292.571q-29.714 0-51.429 21.714t-21.714 51.429zM54.857 237.714q0-7.429 5.429-12.857t12.857-5.429h292.571q7.429 0 12.857 5.429t5.429 12.857v402.286q0 7.429-5.429 12.857t-12.857 5.429h-292.571q-7.429 0-12.857-5.429t-5.429-12.857v-402.286zM164.571 722.286q0-9.143 9.143-9.143h91.429q9.143 0 9.143 9.143t-9.143 9.143h-91.429q-9.143 0-9.143-9.143zM173.714 146.286q0-18.857 13.429-32.286t32.286-13.429 32.286 13.429 13.429 32.286-13.429 32.286-32.286 13.429-32.286-13.429-13.429-32.286z" horiz-adv-x="439" />
<glyph unicode="&#xe647;" d="M0 438.857q0 37.714 26.857 64.571t64.571 26.857 64.571-26.857 26.857-64.571-26.857-64.571-64.571-26.857-64.571 26.857-26.857 64.571zM100.571 694.857q0 41.714 29.429 71.143t71.143 29.429 71.143-29.429 29.429-71.143-29.429-71.143-71.143-29.429-71.143 29.429-29.429 71.143zM118.857 182.857q0 34.286 24 58.286t58.286 24q33.714 0 58-24t24.286-58.286-24.286-58.286-58-24q-34.286 0-58.286 24t-24 58.286zM347.429 804.571q0 45.714 32 77.714t77.714 32 77.714-32 32-77.714-32-77.714-77.714-32-77.714 32-32 77.714zM384 73.143q0 30.286 21.429 51.714t51.714 21.429 51.714-21.429 21.429-51.714-21.429-51.714-51.714-21.429-51.714 21.429-21.429 51.714zM649.143 182.857q0 26.286 18.857 45.143t45.143 18.857 45.143-18.857 18.857-45.143-18.857-45.143-45.143-18.857-45.143 18.857-18.857 45.143zM667.429 694.857q0 18.857 13.429 32.286t32.286 13.429 32.286-13.429 13.429-32.286-13.429-32.286-32.286-13.429-32.286 13.429-13.429 32.286zM768 438.857q0 22.857 16 38.857t38.857 16 38.857-16 16-38.857-16-38.857-38.857-16-38.857 16-16 38.857z" horiz-adv-x="896" />
<glyph unicode="&#xe648;" d="M0 201.143v548.571q0 52.571 37.714 90.286t90.286 37.714h182.857q52.571 0 90.286-37.714t37.714-90.286v-18.286h384q52.571 0 90.286-37.714t37.714-90.286v-402.286q0-52.571-37.714-90.286t-90.286-37.714h-694.857q-52.571 0-90.286 37.714t-37.714 90.286zM73.143 201.143q0-22.857 16-38.857t38.857-16h694.857q22.857 0 38.857 16t16 38.857v402.286q0 22.857-16 38.857t-38.857 16h-402.286q-22.857 0-38.857 16t-16 38.857v36.571q0 22.857-16 38.857t-38.857 16h-182.857q-22.857 0-38.857-16t-16-38.857v-548.571z" horiz-adv-x="951" />
<glyph unicode="&#xe649;" d="M0 201.143v548.571q0 52.571 37.714 90.286t90.286 37.714h182.857q52.571 0 90.286-37.714t37.714-90.286v-18.286h310.857q52.571 0 90.286-37.714t37.714-90.286v-91.429h109.714q30.857 0 56.571-14t38.286-40.286q8.571-18.286 8.571-38.857 0-35.429-26.286-68.571l-168.571-207.429q-24.571-30.286-66.286-50t-80-19.714h-621.714q-52.571 0-90.286 37.714t-37.714 90.286zM73.143 262.286l146.286 180q25.143 30.286 66.286 50t80 19.714h438.857v91.429q0 22.857-16 38.857t-38.857 16h-329.143q-22.857 0-38.857 16t-16 38.857v36.571q0 22.857-16 38.857t-38.857 16h-182.857q-22.857 0-38.857-16t-16-38.857v-487.429zM97.714 166.286q0-20 30.286-20h621.714q22.857 0 49.143 12.571t40.571 30.286l168 207.429q10.286 12.571 10.286 22.286 0 20-30.286 20h-621.714q-22.857 0-48.857-12.286t-40.857-30l-168-207.429q-10.286-13.714-10.286-22.857z" horiz-adv-x="1097" />
<glyph unicode="&#xe64a;" d="M0 438.857q0 119.429 58.857 220.286t159.714 159.714 220.286 58.857 220.286-58.857 159.714-159.714 58.857-220.286-58.857-220.286-159.714-159.714-220.286-58.857-220.286 58.857-159.714 159.714-58.857 220.286zM73.143 438.857q0-74.286 29.143-142t78-116.571 116.571-78 142-29.143 142 29.143 116.571 78 78 116.571 29.143 142-29.143 142-78 116.571-116.571 78-142 29.143-142-29.143-116.571-78-78-116.571-29.143-142zM219.429 585.143q0 30.286 21.429 51.714t51.714 21.429 51.714-21.429 21.429-51.714-21.429-51.714-51.714-21.429-51.714 21.429-21.429 51.714zM229.714 336.571q-4.571 14.286 2.286 27.714t21.714 18q14.286 4.571 27.714-2.286t18-21.714q14.286-45.714 52.857-74t86.571-28.286 86.571 28.286 52.857 74q4.571 14.857 18.286 21.714t28 2.286 21.143-18 2.286-27.714q-21.143-69.143-78.857-111.429t-130.286-42.286-130.286 42.286-78.857 111.429zM512 585.143q0 30.286 21.429 51.714t51.714 21.429 51.714-21.429 21.429-51.714-21.429-51.714-51.714-21.429-51.714 21.429-21.429 51.714z" />
<glyph unicode="&#xe64b;" d="M0 438.857q0 119.429 58.857 220.286t159.714 159.714 220.286 58.857 220.286-58.857 159.714-159.714 58.857-220.286-58.857-220.286-159.714-159.714-220.286-58.857-220.286 58.857-159.714 159.714-58.857 220.286zM73.143 438.857q0-74.286 29.143-142t78-116.571 116.571-78 142-29.143 142 29.143 116.571 78 78 116.571 29.143 142-29.143 142-78 116.571-116.571 78-142 29.143-142-29.143-116.571-78-78-116.571-29.143-142zM219.429 585.143q0 30.286 21.429 51.714t51.714 21.429 51.714-21.429 21.429-51.714-21.429-51.714-51.714-21.429-51.714 21.429-21.429 51.714zM229.714 248.571q21.143 69.143 78.857 111.429t130.286 42.286 130.286-42.286 78.857-111.429q4.571-14.286-2.286-27.714t-21.143-18-28 2.286-18.286 21.714q-14.286 45.714-52.857 74t-86.571 28.286-86.571-28.286-52.857-74q-4.571-14.857-18-21.714t-27.714-2.286q-14.857 4.571-21.714 18t-2.286 27.714zM512 585.143q0 30.286 21.429 51.714t51.714 21.429 51.714-21.429 21.429-51.714-21.429-51.714-51.714-21.429-51.714 21.429-21.429 51.714z" />
<glyph unicode="&#xe64c;" d="M0 365.714q0 121.143 85.714 206.857t206.857 85.714h512q121.143 0 206.857-85.714t85.714-206.857-85.714-206.857-206.857-85.714q-109.714 0-193.143 73.143h-125.714q-83.429-73.143-193.143-73.143-121.143 0-206.857 85.714t-85.714 206.857zM109.714 329.143q0-8 5.143-13.143t13.143-5.143h109.714v-109.714q0-8 5.143-13.143t13.143-5.143h73.143q8 0 13.143 5.143t5.143 13.143v109.714h109.714q8 0 13.143 5.143t5.143 13.143v73.143q0 8-5.143 13.143t-13.143 5.143h-109.714v109.714q0 8-5.143 13.143t-13.143 5.143h-73.143q-8 0-13.143-5.143t-5.143-13.143v-109.714h-109.714q-8 0-13.143-5.143t-5.143-13.143v-73.143zM658.286 292.571q0-30.286 21.429-51.714t51.714-21.429 51.714 21.429 21.429 51.714-21.429 51.714-51.714 21.429-51.714-21.429-21.429-51.714zM804.571 438.857q0-30.286 21.429-51.714t51.714-21.429 51.714 21.429 21.429 51.714-21.429 51.714-51.714 21.429-51.714-21.429-21.429-51.714z" horiz-adv-x="1097" />
<glyph unicode="&#xe64d;" d="M0 329.143q0 8 5.143 13.143t13.143 5.143h182.857q8 0 13.143-5.143t5.143-13.143-5.143-13.143-13.143-5.143h-182.857q-8 0-13.143 5.143t-5.143 13.143zM9.143 694.857q0 68.571 48.571 116l84 83.429q47.429 47.429 116 47.429 69.143 0 116.571-48.571l190.857-191.429q12-12 24-32l-136.571-10.286-156 156.571q-16 16-38.857 16-22.286 0-38.857-15.429l-84-83.429q-16-16-16-38.286 0-22.857 16-38.857l156.571-156.571-10.286-137.143q-20 12-32 24l-192 192q-48 49.143-48 116.571zM73.143 91.428q0 7.429 5.143 13.143l146.286 146.286q5.714 5.143 13.143 5.143t13.143-5.143q5.143-5.714 5.143-13.143t-5.143-13.143l-146.286-146.286q-5.714-5.143-13.143-5.143-6.857 0-13.143 5.143-5.143 5.714-5.143 13.143zM310.857 18.286v182.857q0 8 5.143 13.143t13.143 5.143 13.143-5.143 5.143-13.143v-182.857q0-8-5.143-13.143t-13.143-5.143-13.143 5.143-5.143 13.143zM361.714 281.143l136.571 10.286 156-156.571q15.429-15.429 38.857-15.714t38.857 15.143l84 83.429q16 16 16 38.286 0 22.857-16 38.857l-156.571 157.143 10.286 136.571q20-12 32-24l192-192q48-49.143 48-116.571 0-68.571-48.571-116l-84-83.429q-47.429-47.429-116-47.429-69.143 0-116.571 48.571l-190.857 191.429q-12 12-24 32zM603.429 749.714v182.857q0 8 5.143 13.143t13.143 5.143 13.143-5.143 5.143-13.143v-182.857q0-8-5.143-13.143t-13.143-5.143-13.143 5.143-5.143 13.143zM694.857 713.143q0 7.429 5.143 13.143l146.286 146.286q5.714 5.143 13.143 5.143t13.143-5.143q5.143-5.714 5.143-13.143t-5.143-13.143l-146.286-146.286q-6.286-5.143-13.143-5.143t-13.143 5.143q-5.143 5.714-5.143 13.143zM731.429 621.714q0 8 5.143 13.143t13.143 5.143h182.857q8 0 13.143-5.143t5.143-13.143-5.143-13.143-13.143-5.143h-182.857q-8 0-13.143 5.143t-5.143 13.143z" horiz-adv-x="951" />
<glyph unicode="&#xe64e;" d="M2.857 73.143v95.429h73.143l112.571 166.286-105.714 155.429h-78.286v96h157.714l79.429-130.286q1.143-2.286 13.143-24 4.571-5.143 6.286-12h1.714q1.714 5.143 6.286 12l14.286 24 80 130.286h146.857v-96h-71.429l-105.143-152.571 116.571-169.143h62.286v-95.429h-141.714l-90.857 144-13.714 24q-4.571 5.143-6.286 12h-1.714l-5.143-12q-5.714-11.429-14.286-25.143l-88.571-142.857h-147.429zM578.857 480.571q0 36.571 14.857 66.857t37.143 49.429 48 37.143 48 31.143 37.143 30.857 14.857 36.571q0 21.714-16.857 35.714t-40.286 14q-29.143 0-55.429-22.286-8-6.286-20.571-21.714l-60 52.571q14.857 21.143 36 37.714 47.429 37.143 107.429 37.143 62.857 0 101.714-34t38.857-90.571q0-32-14-58.857t-35.429-43.714-46.571-33.429-46.857-28.857-37.429-29.429-17.429-36h132.571v45.714h72v-117.714h-293.714l-1.714 15.429q-2.286 16-2.286 26.286z" />
<glyph unicode="&#xe64f;" d="M0 73.143v585.143q1.143-0.571 10-2t19.429-2.857 12.286-2q85.714-13.714 140-13.714 45.714 0 66.857 20 26.286 25.143 26.286 50.857 0 12.571-8.571 28.857t-19.143 30.286-19.143 36.857-8.571 47.429q0 46.857 33.714 72.857t82.286 26q45.714 0 76.571-25.429t30.857-70.571q0-23.429-10-44.286t-21.714-33.714-21.714-32.286-10-40.571q0-32.571 24-47.714t58.857-15.143q36.571 0 102.857 8.571t93.143 9.714v-1.143q-0.571-1.143-2-10t-2.857-19.429-2-12.286q-13.714-85.714-13.714-140 0-45.714 20-66.857 25.143-26.286 50.857-26.286 12.571 0 28.857 8.571t30.286 19.143 36.857 19.143 47.429 8.571q46.857 0 72.857-33.714t26-81.714q0-46.286-25.429-77.143t-70.571-30.857q-23.429 0-44.286 10t-33.714 21.714-32.286 21.714-40.571 10q-62.857 0-62.857-70.857 0-22.286 9.143-65.714t8.571-65.714v-2.857q-12.571 0-18.857-0.571-19.429-1.714-55.714-6.571t-66-7.714-56-2.857q-34.857 0-58.857 15.143t-24 47.714q0 21.143 10 40.571t21.714 32.286 21.714 33.714 10 44.286q0 45.143-30.857 70.571t-77.143 25.429q-48 0-81.714-26t-33.714-72.857q0-24.571 8.571-47.429t19.143-36.857 19.143-30.286 8.571-28.857q0-25.714-26.286-50.857-21.143-20-66.857-20-54.286 0-140 13.714-5.143 1.143-15.714 2.286t-15.714 2.286l-7.429 1.143q-0.571 0-1.714 0.571-1.143 0-1.143 0.571z" horiz-adv-x="951" />
<glyph unicode="&#xe650;" d="M0 402.286v438.857q0 14.857 10.857 25.714t25.714 10.857h658.286q14.857 0 25.714-10.857t10.857-25.714v-438.857q0-49.143-19.143-97.429t-47.429-85.714-67.429-72.857-72.286-58.857-69.143-44.286-51.143-28.286-24.286-11.429q-6.857-3.429-14.857-3.429t-14.857 3.429q-9.143 4-24.286 11.429t-51.143 28.286-69.143 44.286-72.286 58.857-67.429 72.857-47.429 85.714-19.143 97.429zM365.714 118.286q68 36 121.714 78.286 134.286 105.143 134.286 205.714v365.714h-256v-649.714z" horiz-adv-x="731" />
<glyph unicode="&#xe651;" d="M0 0v731.429q0 29.714 21.714 51.429t51.429 21.714h73.143v54.857q0 37.714 26.857 64.571t64.571 26.857h36.571q37.714 0 64.571-26.857t26.857-64.571v-54.857h219.429v54.857q0 37.714 26.857 64.571t64.571 26.857h36.571q37.714 0 64.571-26.857t26.857-64.571v-54.857h73.143q29.714 0 51.429-21.714t21.714-51.429v-731.429q0-29.714-21.714-51.429t-51.429-21.714h-804.571q-29.714 0-51.429 21.714t-21.714 51.429zM73.143 0h804.571v585.143h-804.571v-585.143zM219.429 694.857q0-8 5.143-13.143t13.143-5.143h36.571q8 0 13.143 5.143t5.143 13.143v164.571q0 8-5.143 13.143t-13.143 5.143h-36.571q-8 0-13.143-5.143t-5.143-13.143v-164.571zM658.286 694.857q0-8 5.143-13.143t13.143-5.143h36.571q8 0 13.143 5.143t5.143 13.143v164.571q0 8-5.143 13.143t-13.143 5.143h-36.571q-8 0-13.143-5.143t-5.143-13.143v-164.571z" horiz-adv-x="951" />
<glyph unicode="&#xe652;" d="M2 610.286q-4.857 14.286 2 28 2.857 5.714 8.286 14.857t21.429 30.571 34.571 40 48.571 38.286 62 30q-14.286 24-14.286 49.143 0 37.714 26.857 64.571t64.571 26.857 64.571-26.857 26.857-64.571q0-18.857-8-36.571h172.571q0 6.286 4 11.429t10.286 6.286l256 54.857q1.714 0.571 4 0.571 6.857 0 11.429-4 6.857-5.143 6.857-14.286v-182.857q0-9.143-6.857-14.286-4.571-4-11.429-4-2.286 0-4 0.571l-256 54.857q-6.286 1.143-10.286 6.286t-4 11.429h-146.286v-58.286q63.429-13.143 104.857-63.429t41.429-116v-457.143q0-14.857-10.857-25.714t-25.714-10.857h-292.571q-14.857 0-25.714 10.857t-10.857 25.714v457.143q0 60.571 35.714 108.857t92.286 65.429v63.429h-18.286q-33.714 0-65.714-13.429t-52.286-30.286-37.714-38-23.143-30.571-8-14q-9.714-20-32.571-20-9.143 0-16.571 4-13.143 6.857-18 21.143zM219.429 841.143q0-14.857 10.857-25.714t25.714-10.857 25.714 10.857 10.857 25.714-10.857 25.714-25.714 10.857-25.714-10.857-10.857-25.714z" horiz-adv-x="805" />
<glyph unicode="&#xe653;" d="M20.571 338.286l128 219.429q5.714 8 14.857 9.143l216.571 11.429q54.857 65.143 100.571 111.429 107.429 106.857 204.571 147.429t246.286 40.571q8 0 13.714-5.429t5.714-12.857q0-142.286-43.143-246t-144.857-206q-46.286-45.714-111.429-100.571l-11.429-216.571q-1.143-9.143-9.143-14.857l-219.429-128q-4-2.286-9.143-2.286-6.857 0-13.143 5.143l-36.571 36.571q-7.429 8-4.571 18.286l48.571 157.714-160.571 160.571-157.714-48.571q-1.714-0.571-5.143-0.571-8 0-13.143 5.143l-36.571 36.571q-9.714 10.857-2.857 22.286zM713.143 694.857q0-22.857 16-38.857t38.857-16 38.857 16 16 38.857-16 38.857-38.857 16-38.857-16-16-38.857z" horiz-adv-x="951" />
<glyph unicode="&#xe654;" d="M0 438.857q0 119.429 58.857 220.286t159.714 159.714 220.286 58.857 220.286-58.857 159.714-159.714 58.857-220.286-58.857-220.286-159.714-159.714-220.286-58.857-220.286 58.857-159.714 159.714-58.857 220.286zM197.714 438.857q0-14.857 10.857-25.714l259.429-259.429q10.857-10.857 25.714-10.857t25.714 10.857l58.286 58.286q10.857 10.857 10.857 25.714t-10.857 25.714l-175.429 175.429 175.429 175.429q10.857 10.857 10.857 25.714t-10.857 25.714l-58.286 58.286q-10.857 10.857-25.714 10.857t-25.714-10.857l-259.429-259.429q-10.857-10.857-10.857-25.714z" />
<glyph unicode="&#xe655;" d="M0 438.857q0 119.429 58.857 220.286t159.714 159.714 220.286 58.857 220.286-58.857 159.714-159.714 58.857-220.286-58.857-220.286-159.714-159.714-220.286-58.857-220.286 58.857-159.714 159.714-58.857 220.286zM289.143 237.714q0-14.857 10.857-25.714l58.286-58.286q10.857-10.857 25.714-10.857t25.714 10.857l259.429 259.429q10.857 10.857 10.857 25.714t-10.857 25.714l-259.429 259.429q-10.857 10.857-25.714 10.857t-25.714-10.857l-58.286-58.286q-10.857-10.857-10.857-25.714t10.857-25.714l175.429-175.429-175.429-175.429q-10.857-10.857-10.857-25.714z" />
<glyph unicode="&#xe656;" d="M0 438.857q0 119.429 58.857 220.286t159.714 159.714 220.286 58.857 220.286-58.857 159.714-159.714 58.857-220.286-58.857-220.286-159.714-159.714-220.286-58.857-220.286 58.857-159.714 159.714-58.857 220.286zM142.857 384q0-14.857 10.857-25.714l58.286-58.286q10.857-10.857 25.714-10.857t25.714 10.857l175.429 175.429 175.429-175.429q10.857-10.857 25.714-10.857t25.714 10.857l58.286 58.286q10.857 10.857 10.857 25.714t-10.857 25.714l-259.429 259.429q-10.857 10.857-25.714 10.857t-25.714-10.857l-259.429-259.429q-10.857-10.857-10.857-25.714z" />
<glyph unicode="&#xe657;" d="M0 438.857q0 119.429 58.857 220.286t159.714 159.714 220.286 58.857 220.286-58.857 159.714-159.714 58.857-220.286-58.857-220.286-159.714-159.714-220.286-58.857-220.286 58.857-159.714 159.714-58.857 220.286zM142.857 493.714q0-14.857 10.857-25.714l259.429-259.429q10.857-10.857 25.714-10.857t25.714 10.857l259.429 259.429q10.857 10.857 10.857 25.714t-10.857 25.714l-58.286 58.286q-10.857 10.857-25.714 10.857t-25.714-10.857l-175.429-175.429-175.429 175.429q-10.857 10.857-25.714 10.857t-25.714-10.857l-58.286-58.286q-10.857-10.857-10.857-25.714z" />
<glyph unicode="&#xe658;" d="M0 73.143v256q0 14.857 10.857 25.714t25.714 10.857h256q14.857 0 25.714-10.857t10.857-25.714-10.857-25.714l-78.286-78.286q40.571-37.714 92-58.286t106.857-20.571q76.571 0 142.857 37.143t106.286 102.286q6.286 9.714 30.286 66.857 4.571 13.143 17.143 13.143h109.714q7.429 0 12.857-5.429t5.429-12.857q0-2.857-0.571-4-36.571-153.143-153.143-248.286t-273.143-95.143q-83.429 0-161.429 31.429t-139.143 89.714l-73.714-73.714q-10.857-10.857-25.714-10.857t-25.714 10.857-10.857 25.714zM10.286 530.286v4q37.143 153.143 154.286 248.286t274.286 95.143q83.429 0 162.286-31.714t140-89.429l74.286 73.714q10.857 10.857 25.714 10.857t25.714-10.857 10.857-25.714v-256q0-14.857-10.857-25.714t-25.714-10.857h-256q-14.857 0-25.714 10.857t-10.857 25.714 10.857 25.714l78.857 78.857q-84.571 78.286-199.429 78.286-76.571 0-142.857-37.143t-106.286-102.286q-6.286-9.714-30.286-66.857-4.571-13.143-17.143-13.143h-113.714q-7.429 0-12.857 5.429t-5.429 12.857z" />
<glyph unicode="&#xe659;" d="M30.857 329.428q0 30.571 21.143 51.714l518.286 517.714q21.143 21.143 51.714 21.143t51.714-21.143l71.429-71.429q-32-32-32-77.714t32-77.714 77.714-32 77.714 32l72-71.429q21.143-21.143 21.143-51.714t-21.143-51.714l-518.286-518.857q-21.143-21.143-51.714-21.143t-51.714 21.143l-72 72q32 32 32 77.714t-32 77.714-77.714 32-77.714-32l-71.429 72q-21.143 21.143-21.143 51.714zM195.429 365.714q0-14.857 10.857-25.714l206.857-206.857q10.286-10.286 25.714-10.286t25.714 10.286l353.143 353.143q10.857 10.857 10.857 25.714t-10.857 25.714l-206.857 206.857q-10.286 10.286-25.714 10.286t-25.714-10.286l-353.143-353.143q-10.857-10.857-10.857-25.714zM258.286 365.714l326.857 326.857 180.571-180.571-326.857-326.857z" />
<glyph unicode="&#xe65a;" d="M0 164.571v548.571q0 68 48.286 116.286t116.286 48.286h548.571q68 0 116.286-48.286t48.286-116.286v-548.571q0-68-48.286-116.286t-116.286-48.286h-548.571q-68 0-116.286 48.286t-48.286 116.286zM161.143 256q0-14.857 10.857-25.714l58.286-58.286q10.857-10.857 25.714-10.857t25.714 10.857l305.143 305.143 82.286-82.286q10.286-10.857 25.714-10.857 6.857 0 14.286 2.857 22.286 9.714 22.286 33.714v274.286q0 14.857-10.857 25.714t-25.714 10.857h-274.286q-24 0-33.714-22.286-9.714-23.429 8-40l82.286-82.286-305.143-305.143q-10.857-10.857-10.857-25.714z" />
<glyph unicode="&#xe65b;" d="M0 164.571v548.571q0 68 48.286 116.286t116.286 48.286h548.571q68 0 116.286-48.286t48.286-116.286v-548.571q0-68-48.286-116.286t-116.286-48.286h-548.571q-68 0-116.286 48.286t-48.286 116.286zM146.286 329.143q0-103.429 95.429-230.857 5.714-6.857 14.286-6.857 4 0 7.429 1.714 12.571 5.143 10.857 18.857-25.143 202.286 35.429 270.286 26.286 29.714 74.286 43.143t128 13.429v-91.429q0-24 22.857-33.714 6.857-2.857 13.714-2.857 14.857 0 25.714 10.857l201.143 201.143q10.857 10.857 10.857 25.714t-10.857 25.714l-201.143 201.143q-17.143 17.714-39.429 8-22.857-9.714-22.857-33.714v-91.429q-68 0-123.429-11.143t-92.857-29.143-65.143-45.143-43.714-54.571-25.429-62.286-12.286-63.714-2.857-63.143z" />
<glyph unicode="&#xe65c;" d="M0-18.286v914.286q0 22.857 16 38.857t38.857 16h457.143v-310.857q0-22.857 16-38.857t38.857-16h310.857v-603.429q0-22.857-16-38.857t-38.857-16h-768q-22.857 0-38.857 16t-16 38.857zM585.143 658.286v269.714q12.571-8 20.571-16l233.143-233.143q8-8 16-20.571h-269.714z" />
<glyph unicode="&#xe65d;" d="M0-18.286v914.286q0 22.857 16 38.857t38.857 16h457.143v-310.857q0-22.857 16-38.857t38.857-16h310.857v-603.429q0-22.857-16-38.857t-38.857-16h-768q-22.857 0-38.857 16t-16 38.857zM219.429 164.571q0-8 5.143-13.143t13.143-5.143h402.286q8 0 13.143 5.143t5.143 13.143v36.571q0 8-5.143 13.143t-13.143 5.143h-402.286q-8 0-13.143-5.143t-5.143-13.143v-36.571zM219.429 310.857q0-8 5.143-13.143t13.143-5.143h402.286q8 0 13.143 5.143t5.143 13.143v36.571q0 8-5.143 13.143t-13.143 5.143h-402.286q-8 0-13.143-5.143t-5.143-13.143v-36.571zM219.429 457.143q0-8 5.143-13.143t13.143-5.143h402.286q8 0 13.143 5.143t5.143 13.143v36.571q0 8-5.143 13.143t-13.143 5.143h-402.286q-8 0-13.143-5.143t-5.143-13.143v-36.571zM585.143 658.286v269.714q12.571-8 20.571-16l233.143-233.143q8-8 16-20.571h-269.714z" />
<glyph unicode="&#xe65e;" d="M0 109.714v365.714q0 14.857 10.857 25.714t25.714 10.857h164.571q14.857 0 25.714-10.857t10.857-25.714v-365.714q0-14.857-10.857-25.714t-25.714-10.857h-164.571q-14.857 0-25.714 10.857t-10.857 25.714zM73.143 182.857q0-15.429 10.571-26t26-10.571q14.857 0 25.714 10.571t10.857 26q0 14.857-10.857 25.714t-25.714 10.857q-15.429 0-26-10.857t-10.571-25.714zM274.286 109.714v366.286q0 14.286 10.286 24.857t24.571 11.714q13.714 1.143 43.429 33.714t57.714 69.143q38.857 49.714 57.714 68.571 10.286 10.286 17.714 27.429t10 27.714 7.714 34.571q4 22.286 7.143 34.857t11.143 29.714 19.429 28.571q10.857 10.857 25.714 10.857 26.286 0 47.143-6t34.286-14.857 22.857-23.143 13.714-25.714 6.857-28.571 2.857-25.714 0.286-22.286q0-21.714-5.429-43.429t-10.857-34.286-15.714-32q-1.714-3.429-5.714-10.286t-6.286-12.571-4.571-13.714h158.286q44.571 0 77.143-32.571t32.571-77.143q0-49.143-31.429-85.143 8.571-25.143 8.571-43.429 1.714-43.429-24.571-78.286 9.714-32 0-66.857-8.571-32.571-30.857-53.714 5.143-64-28-103.429-36.571-43.429-112.571-44.571h-73.714q-37.714 0-82.286 8.857t-69.429 16.571-68.857 22.571q-70.286 24.571-90.286 25.143-14.857 0.571-25.714 11.143t-10.857 25.429z" horiz-adv-x="951" />
<glyph unicode="&#xe65f;" d="M0 329.143q0-14.857 10.857-25.714t25.714-10.857h164.571q14.857 0 25.714 10.857t10.857 25.714v365.714q0 14.857-10.857 25.714t-25.714 10.857h-164.571q-14.857 0-25.714-10.857t-10.857-25.714v-365.714zM73.143 621.714q0 15.429 10.571 26t26 10.571q14.857 0 25.714-10.571t10.857-26q0-14.857-10.857-25.714t-25.714-10.857q-15.429 0-26 10.857t-10.571 25.714zM274.286 328.571v366.286q0 14.857 10.857 25.429t25.714 11.143q20 0.571 90.286 25.143 44 14.857 68.857 22.571t69.429 16.571 82.286 8.857h73.714q76-1.143 112.571-44.571 33.143-39.429 28-103.429 22.286-21.143 30.857-53.714 9.714-34.857 0-66.857 26.286-34.857 24.571-78.286 0-18.286-8.571-43.429 31.429-34.857 31.429-85.143-0.571-44.571-32.857-77.143t-76.857-32.571h-158.286q2.286-8 4.571-13.714t6.286-12.571 5.714-10.286q10.286-21.143 15.429-32.571t10.857-33.429 5.714-43.714q0-13.714-0.286-22.286t-2.857-25.714-6.857-28.571-13.714-25.714-22.857-23.143-34.286-14.857-47.143-6q-14.857 0-25.714 10.857-11.429 11.429-19.429 28.571t-11.143 29.714-7.143 34.857q-5.143 24-7.714 34.571t-10 27.714-17.714 27.429q-18.857 18.857-57.714 68.571-28 36.571-57.714 69.143t-43.429 33.714q-14.286 1.143-24.571 11.714t-10.286 24.857z" horiz-adv-x="951" />
<glyph unicode="&#xe660;" d="M15.429 221.714q0 133.714 14.857 200 8 33.714 33.143 56.571t58.857 26.857q104.571 11.429 316.571 11.429t317.143-11.429q33.143-4 58.571-26.857t32.857-56.571q14.857-64 14.857-200 0-133.714-14.857-200-8-33.714-33.143-56.571t-58.286-26.286q-105.143-12-317.143-12t-317.143 12q-33.143 3.429-58.571 26.286t-32.857 56.571q-14.857 64-14.857 200zM78.857 364h60v-325.143h57.143v325.143h61.143v53.714h-178.286v-53.714zM152 950.857h60.571l40.571-150.286 38.857 150.286h58.286l-69.143-228v-154.857h-57.143v154.857q-8 42.286-34.857 121.143-21.143 58.857-37.143 106.857zM264.571 97.714q0-28 4.571-41.714 6.857-21.143 33.143-21.143 27.429 0 58.286 34.857v-30.857h50.857v282.286h-50.857v-216q-17.143-24-32.571-24-10.286 0-12 12-0.571 1.714-0.571 20v208h-50.857v-223.429zM350.857 660.571v100q0 45.714 16 66.857 21.714 29.143 60 29.143 39.429 0 60.571-29.143 16-21.143 16-66.857v-100q0-46.286-16-67.429-21.143-29.143-60.571-29.143-38.286 0-60 29.143-16 21.714-16 67.429zM402.286 650.857q0-40 24.571-40t24.571 40v120q0 39.429-24.571 39.429t-24.571-39.429v-120zM456 38.857h50.857v27.429q25.714-31.429 53.143-31.429 30.857 0 40.571 31.429 5.143 15.429 5.143 57.143v112.571q0 41.714-5.143 56.571-9.714 32-40.571 32-28.571 0-53.143-30.857v124h-50.857v-378.857zM506.857 93.714v172q12.571 12.571 25.714 12.571 22.286 0 22.286-38.286v-120.571q0-38.286-22.286-38.286-13.143 0-25.714 12.571zM545.714 628v225.143h52v-209.714q0-18.857 0.571-20 1.714-12.571 12-12.571 15.429 0 32.571 24.571v217.714h52v-285.143h-52v31.429q-30.286-35.429-58.857-35.429-26.286 0-33.714 21.143-4.571 13.714-4.571 42.857zM645.714 130.286q0-45.143 16.571-66.286 22.286-29.143 61.714-29.143 41.143 0 61.714 30.286 10.286 15.429 12 30.857 1.143 5.143 1.143 33.143v7.429h-52q0-29.143-1.143-34.857-4-20.571-22.857-20.571-26.286 0-26.286 39.429v49.714h102.286v58.857q0 45.143-15.429 66.286-22.286 29.143-60.571 29.143-38.857 0-61.143-29.143-16-21.143-16-66.286v-98.857zM696.571 213.143v26.286q0 38.857 25.714 38.857t25.714-38.857v-26.286h-51.429z" />
<glyph unicode="&#xe661;" d="M0 435.428q0 130.286 64.571 213.714 64 82.286 162.286 82.286 41.143 0 101.143-17.143 59.429-17.143 78.857-17.143 25.714 0 81.714 19.429 58.286 19.429 98.857 19.429 68 0 121.714-37.143 29.714-20.571 59.429-57.143-45.143-38.286-65.143-67.429-37.143-53.714-37.143-118.286 0-70.857 39.429-127.429t90.286-72q-22.286-71.429-70.286-142.857-73.714-112-146.857-112-28 0-80 18.286-49.143 18.286-86.286 18.286-34.857 0-81.143-18.857-46.286-19.429-75.429-19.429-86.857 0-172 148-84 149.143-84 287.429zM390.286 719.428q1.714 85.143 44.571 146.857 42.286 61.143 142.857 84.571 0.571-1.714 1.429-6.286t1.429-6.286q0-2.286 0.286-5.714t0.286-5.714q0-34.857-16.571-77.714-17.143-42.857-53.143-78.857-30.857-30.857-61.714-41.143-21.143-6.286-59.429-9.714z" horiz-adv-x="805" />
<glyph unicode="&#xe662;" d="M0 57.714v318.286h389.714v-372zM0 424v322.857l389.714 53.714v-376.571h-389.714zM432.571-1.714v377.714h518.286v-449.143zM432.571 424v382.286l518.286 71.429v-453.714h-518.286z" horiz-adv-x="951" />
<glyph unicode="&#xe663;" d="M0 347.428q0 16.571 9.143 30.286l146.286 219.429q41.714 61.143 100.571 61.143h219.429q58.857 0 100.571-61.143l146.286-219.429q9.143-13.714 9.143-30.286 0-22.857-16-38.857t-38.857-16q-29.143 0-45.714 24.571l-129.714 194.857h-25.714v-75.429l141.143-234.857q5.143-8.571 5.143-18.857 0-14.857-10.857-25.714t-25.714-10.857h-109.714v-155.429q0-26.286-18.857-45.143t-45.143-18.857h-91.429q-26.286 0-45.143 18.857t-18.857 45.143v155.429h-109.714q-14.857 0-25.714 10.857t-10.857 25.714q0 10.286 5.143 18.857l141.143 234.857v75.429h-25.714l-129.714-194.857q-16.571-24.571-45.714-24.571-22.857 0-38.857 16t-16 38.857zM237.714 804.571q0 53.143 37.429 90.571t90.571 37.429 90.571-37.429 37.429-90.571-37.429-90.571-90.571-37.429-90.571 37.429-37.429 90.571z" horiz-adv-x="731" />
<glyph unicode="&#xe664;" d="M0 310.857v237.714q0 45.714 32 77.714t77.714 32h365.714q45.714 0 77.714-32t32-77.714v-237.714q0-22.857-16-38.857t-38.857-16-38.857 16-16 38.857v201.143h-36.571v-521.143q0-26.286-18.857-45.143t-45.143-18.857-45.143 18.857-18.857 45.143v265.143h-36.571v-265.143q0-26.286-18.857-45.143t-45.143-18.857-45.143 18.857-18.857 45.143v521.143h-36.571v-201.143q0-22.857-16-38.857t-38.857-16-38.857 16-16 38.857zM164.571 804.571q0 53.143 37.429 90.571t90.571 37.429 90.571-37.429 37.429-90.571-37.429-90.571-90.571-37.429-90.571 37.429-37.429 90.571z" horiz-adv-x="585" />
<glyph unicode="&#xe665;" d="M18.286 402.286q0 14.857 10.857 25.714t25.714 10.857h128v168l-98.857 98.857q-10.857 10.857-10.857 25.714t10.857 25.714 25.714 10.857 25.714-10.857l98.857-98.857h482.286l98.857 98.857q10.857 10.857 25.714 10.857t25.714-10.857 10.857-25.714-10.857-25.714l-98.857-98.857v-168h128q14.857 0 25.714-10.857t10.857-25.714-10.857-25.714-25.714-10.857h-128q0-97.714-38.286-165.714l118.857-119.429q10.857-10.857 10.857-25.714t-10.857-25.714q-10.286-10.857-25.714-10.857t-25.714 10.857l-113.143 112.571q-2.857-2.857-8.571-7.429t-24-16.286-37.143-20.857-46.857-16.571-55.429-7.429v512h-73.143v-512q-29.143 0-58 7.714t-49.714 18.857-37.714 22.286-24.857 18.571l-8.571 8-104.571-118.286q-11.429-12-27.429-12-13.714 0-24.571 9.143-10.857 10.286-11.714 25.429t8.857 26.571l115.429 129.714q-33.143 65.143-33.143 156.571h-128q-14.857 0-25.714 10.857t-10.857 25.714zM292.571 731.428q0 76 53.429 129.429t129.429 53.429 129.429-53.429 53.429-129.429h-365.714z" horiz-adv-x="951" />
<glyph unicode="&#xe666;" d="M0 256q0 103.429 59.714 188.571t156.857 120.571l9.714-74.857q-69.714-30.857-111.429-94.571t-41.714-139.714q0-105.714 75.143-180.857t180.857-75.143q72 0 132.857 37.143t94.286 100.286 28.286 135.143l58.286-116.571q-33.143-102.286-120-165.714t-193.714-63.429q-89.143 0-164.857 44.286t-120 120-44.286 164.857zM237.714 843.428q-1.143 9.143 3.429 24 8 29.143 32.571 47.143t55.429 18q37.714 0 64.571-26.857t26.857-64.571q0-39.429-29.714-67.143t-68.571-23.714l21.143-165.143h241.714v-73.143h-232.571l9.143-73.143h260q22.857 0 32.571-20l130.286-260 113.143 56.571 33.143-65.143-146.286-73.143q-7.429-4-16.571-4-22.857 0-32.571 20l-136.571 272.571h-269.714q-13.714 0-24.286 9.429t-12.286 23.143z" horiz-adv-x="951" />
<glyph unicode="&#xe667;" d="M0 658.286q0 13.143 12.571 17.714l640 201.143q2.286 0.571 5.714 0.571t5.714-0.571l640-201.143q12.571-4.571 12.571-17.714t-12.571-17.714l-640-201.143q-2.286-0.571-5.714-0.571t-5.714 0.571l-372.571 117.714q-24.571-19.429-40.571-63.714t-19.429-102q36-20.571 36-62.286 0-39.429-33.143-61.143l33.143-247.429q1.143-8-4.571-14.286-5.143-6.286-13.714-6.286h-109.714q-8.571 0-13.714 6.286-5.714 6.286-4.571 14.286l33.143 247.429q-33.143 21.714-33.143 61.143 0 41.714 37.143 63.429 6.286 118.286 56 188.571l-190.286 59.429q-12.571 4.571-12.571 17.714zM292.571 292.571l10.286 180.571 328-103.429q12.571-4 27.429-4t27.429 4l328 103.429 10.286-180.571q2.286-39.429-46.857-73.143t-134.286-53.429-184.571-19.714-184.571 19.714-134.286 53.429-46.857 73.143z" horiz-adv-x="1317" />
<glyph unicode="&#xe668;" d="M0 0v237.714l475.429 475.429 237.714-237.714-475.429-475.429h-237.714zM73.143 146.286h73.143v-73.143h61.143l52 52-134.286 134.286-52-52v-61.143zM170.286 292.571q0-12.571 12.571-12.571 5.714 0 9.714 4l309.714 309.714q4 4 4 9.714 0 12.571-12.571 12.571-5.714 0-9.714-4l-309.714-309.714q-4-4-4-9.714zM512 749.714l94.857 94.286q20.571 21.714 51.429 21.714 30.286 0 52-21.714l134.286-133.714q21.143-22.286 21.143-52 0-30.286-21.143-51.429l-94.857-94.857z" />
<glyph unicode="&#xe669;" d="M36.571 676.571q0 22.857 16 38.857t38.857 16 38.857-16l130.286-130.286h210.286l130.286 130.286q16 16 38.857 16t38.857-16 16-38.857-16-38.857l-166.857-166.857v-470.857q0-26.286-18.857-45.143t-45.143-18.857-45.143 18.857-18.857 45.143v219.429h-36.571v-219.429q0-26.286-18.857-45.143t-45.143-18.857-45.143 18.857-18.857 45.143v470.857l-166.857 166.857q-16 16-16 38.857zM237.714 731.428q0 53.143 37.429 90.571t90.571 37.429 90.571-37.429 37.429-90.571-37.429-90.571-90.571-37.429-90.571 37.429-37.429 90.571z" horiz-adv-x="731" />
<glyph unicode="&#xe66a;" d="M0 457.143v109.714q0 37.714 26.857 64.571t64.571 26.857h274.286q248.571 0 512 219.429 29.714 0 51.429-21.714t21.714-51.429v-219.429q30.286 0 51.714-21.429t21.429-51.714-21.429-51.714-51.714-21.429v-219.429q0-29.714-21.714-51.429t-51.429-21.714q-238.286 198.286-464 217.143-33.143-10.857-52-37.714t-17.714-57.429 22.857-52.857q-11.429-18.857-13.143-37.429t3.429-33.143 19.143-31.429 27.429-28.571 35.143-28.857q-16.571-33.143-63.714-47.429t-96.286-6.571-75.429 31.714q-4 13.143-16.857 50t-18.286 54-13.143 50.857-8.571 57.714 2 56.286 12.571 63.143h-69.714q-37.714 0-64.571 26.857t-26.857 64.571zM438.857 434.857q215.429-24 438.857-194.857v545.143q-225.143-172.571-438.857-196v-154.286z" />
<glyph unicode="&#xe66b;" d="M0 164.571v219.429q0 53.143 37.429 90.571t90.571 37.429h16l60 239.429q13.143 53.714 59.429 90t102.286 36.286h402.286q56 0 102.286-36.286t59.429-90l60-239.429h16q53.143 0 90.571-37.429t37.429-90.571v-219.429q0-8-5.143-13.143t-13.143-5.143h-73.143v-73.143q0-45.714-32-77.714t-77.714-32-77.714 32-32 77.714v73.143h-530.286v-73.143q0-45.714-32-77.714t-77.714-32-77.714 32-32 77.714v73.143h-54.857q-8 0-13.143 5.143t-5.143 13.143zM91.429 329.143q0-37.714 26.857-64.571t64.571-26.857 64.571 26.857 26.857 64.571-26.857 64.571-64.571 26.857-64.571-26.857-26.857-64.571zM294.857 512h544l-50.857 204q-1.143 4.571-8 10t-12 5.429h-402.286q-5.143 0-12-5.429t-8-10zM841.143 329.143q0-37.714 26.857-64.571t64.571-26.857 64.571 26.857 26.857 64.571-26.857 64.571-64.571 26.857-64.571-26.857-26.857-64.571z" horiz-adv-x="1134" />
<glyph unicode="&#xe66c;" d="M0 91.428v219.429q0 53.143 37.429 90.571t90.571 37.429h16l60 239.429q13.143 53.714 59.429 90t102.286 36.286h73.143v128q0 8 5.143 13.143t13.143 5.143h256q8 0 13.143-5.143t5.143-13.143v-128h36.571q56 0 102.286-36.286t59.429-90l60-239.429h16q53.143 0 90.571-37.429t37.429-90.571v-219.429q0-8-5.143-13.143t-13.143-5.143h-73.143v-36.571q0-45.714-32-77.714t-77.714-32-77.714 32-32 77.714v36.571h-530.286v-36.571q0-45.714-32-77.714t-77.714-32-77.714 32-32 77.714v36.571h-54.857q-8 0-13.143 5.143t-5.143 13.143zM91.429 256q0-37.714 26.857-64.571t64.571-26.857 64.571 26.857 26.857 64.571-26.857 64.571-64.571 26.857-64.571-26.857-26.857-64.571zM294.857 438.857h544l-50.857 204q-1.143 4.571-8 10t-12 5.429h-402.286q-5.143 0-12-5.429t-8-10zM841.143 256q0-37.714 26.857-64.571t64.571-26.857 64.571 26.857 26.857 64.571-26.857 64.571-64.571 26.857-64.571-26.857-26.857-64.571z" horiz-adv-x="1134" />
<glyph unicode="&#xe66d;" d="M0-18.286v914.286q0 22.857 16 38.857t38.857 16h512q22.857 0 50.286-11.429t43.429-27.429l178.286-178.286q16-16 27.429-43.429t11.429-50.286v-658.286q0-22.857-16-38.857t-38.857-16h-768q-22.857 0-38.857 16t-16 38.857zM73.143 0h731.429v585.143h-237.714q-22.857 0-38.857 16t-16 38.857v237.714h-438.857v-877.714zM146.857 107.428q5.143 22.857 32 52.286t75.429 55.143q8 5.143 13.143-3.429 1.143-1.143 1.143-2.286 29.714 48.571 61.143 112.571 38.857 77.714 59.429 149.714-13.714 46.857-17.429 91.143t3.714 72.857q6.286 22.857 24 22.857h12.571q13.143 0 20-8.571 10.286-12 5.143-38.857-1.143-3.429-2.286-4.571 0.571-1.714 0.571-4.571v-17.143q-1.143-70.286-8-109.714 31.429-93.714 83.429-136 18.857-14.857 48-32 33.714 4 66.857 4 84 0 101.143-28 9.143-12.571 1.143-29.714 0-0.571-0.571-1.143l-1.143-1.143v-0.571q-3.429-21.714-40.571-21.714-27.429 0-65.714 11.429t-74.286 30.286q-126.286-13.714-224-47.429-87.429-149.714-138.286-149.714-8.571 0-16 4l-13.714 6.857q-0.571 0.571-3.429 2.857-5.714 5.714-3.429 20.571zM181.714 104q29.714 13.714 78.286 90.286-29.143-22.857-50-48t-28.286-42.286zM338.286 252q77.143 30.857 162.286 46.286-1.143 0.571-7.429 5.429t-9.143 7.714q-43.429 38.286-72.571 100.571-15.429-49.143-47.429-112.571-17.143-32-25.714-47.429zM408 554.286q0.571 4 4 25.143 0 1.714 4 24.571 0.571 2.286 2.286 4.571-0.571 0.571-0.571 1.143t-0.286 0.857-0.286 0.857q-0.571 12.571-7.429 20.571 0-0.571-0.571-1.143v-1.143q-8.571-24-1.143-75.429zM585.143 658.286h214.857q-5.714 16.571-12.571 23.429l-178.857 178.857q-6.857 6.857-23.429 12.571v-214.857zM627.429 274.857q43.429-16 70.857-16 8 0 10.286 0.571 0 0.571-1.143 1.714-13.714 13.714-80 13.714z" />
<glyph unicode="&#xe66e;" d="M0-18.286v914.286q0 22.857 16 38.857t38.857 16h512q22.857 0 50.286-11.429t43.429-27.429l178.286-178.286q16-16 27.429-43.429t11.429-50.286v-658.286q0-22.857-16-38.857t-38.857-16h-768q-22.857 0-38.857 16t-16 38.857zM73.143 0h731.429v585.143h-237.714q-22.857 0-38.857 16t-16 38.857v237.714h-438.857v-877.714zM133.143 450.857h40l93.714-377.714h90.857l73.143 277.143q4 11.429 5.714 26.286 1.143 9.143 1.143 13.714h2.286l1.714-13.714q0.571-1.714 2-11.429t3.143-14.857l73.143-277.143h90.857l93.714 377.714h40v61.143h-171.429v-61.143h51.429l-56.571-250.286q-2.857-11.429-4-26.286l-1.143-12h-2.286l-1.714 12q-0.571 2.857-2.286 12t-2.857 14.286l-82.286 311.429h-65.143l-82.286-311.429q-1.143-5.143-2.571-14t-2-12.286l-2.286-12h-2.286l-1.143 12q-1.143 14.857-4 26.286l-56.571 250.286h51.429v61.143h-171.429v-61.143zM585.143 658.286h214.857q-5.714 16.571-12.571 23.429l-178.857 178.857q-6.857 6.857-23.429 12.571v-214.857z" />
<glyph unicode="&#xe66f;" d="M0-18.286v914.286q0 22.857 16 38.857t38.857 16h512q22.857 0 50.286-11.429t43.429-27.429l178.286-178.286q16-16 27.429-43.429t11.429-50.286v-658.286q0-22.857-16-38.857t-38.857-16h-768q-22.857 0-38.857 16t-16 38.857zM73.143 0h731.429v585.143h-237.714q-22.857 0-38.857 16t-16 38.857v237.714h-438.857v-877.714zM245.143 73.143h160.571v60.571h-42.857l58.857 92q2.857 4 5.714 9.429t4.286 7.714 2 2.286h1.143q0.571-2.286 2.857-5.714 1.143-2.286 2.571-4.286t3.429-4.571 3.714-4.857l61.143-92h-43.429v-60.571h166.286v60.571h-38.857l-109.714 156 111.429 161.143h38.286v61.143h-159.429v-61.143h42.286l-58.857-90.857q-2.286-4-5.714-9.429t-5.143-7.714l-1.143-1.714h-1.143q-0.571 2.286-2.857 5.714-3.429 6.286-9.714 13.143l-60.571 90.857h43.429v61.143h-165.714v-61.143h38.857l108-155.429-110.857-161.714h-38.857v-60.571zM585.143 658.286h214.857q-5.714 16.571-12.571 23.429l-178.857 178.857q-6.857 6.857-23.429 12.571v-214.857z" />
<glyph unicode="&#xe670;" d="M0-18.286v914.286q0 22.857 16 38.857t38.857 16h512q22.857 0 50.286-11.429t43.429-27.429l178.286-178.286q16-16 27.429-43.429t11.429-50.286v-658.286q0-22.857-16-38.857t-38.857-16h-768q-22.857 0-38.857 16t-16 38.857zM73.143 0h731.429v585.143h-237.714q-22.857 0-38.857 16t-16 38.857v237.714h-438.857v-877.714zM237.714 73.143h186.857v60.571h-53.143v95.429h78.286q43.429 0 67.429 8.571 38.286 13.143 60.857 49.714t22.571 83.429q0 46.286-21.143 80.571t-57.143 49.714q-27.429 10.857-74.286 10.857h-210.286v-61.143h52.571v-317.143h-52.571v-60.571zM371.429 293.714v153.143h68.571q29.714 0 47.429-10.286 32-18.857 32-65.714 0-50.857-35.429-68.571-17.714-8.571-44.571-8.571h-68zM585.143 658.286h214.857q-5.714 16.571-12.571 23.429l-178.857 178.857q-6.857 6.857-23.429 12.571v-214.857z" />
</font>
</defs>
</svg>
